<svg width="36" height="36" viewBox="0 0 36 36" opacity="0.25" className="svg" fill="none" xmlns="http://www.w3.org/2000/svg">
<g>
<path d="M22.6049 3.00018C26.6699 3.00018 29.9549 4.60518 29.9999 8.68519V31.4552C29.9999 31.7102 29.9399 31.9652 29.8199 32.1902C29.6249 32.5502 29.2949 32.8202 28.8899 32.9402C28.4999 33.0602 28.0649 33.0002 27.7049 32.7902L17.9849 27.9302L8.24995 32.7902C8.02645 32.9087 7.76995 32.9852 7.51495 32.9852C6.67495 32.9852 5.99995 32.2952 5.99995 31.4552V8.68519C5.99995 4.60518 9.29995 3.00018 13.3499 3.00018H22.6049ZM23.6249 12.0602H12.33C11.685 12.0602 11.16 12.5852 11.16 13.2452C11.16 13.9037 11.685 14.4302 12.33 14.4302H23.6249C24.2699 14.4302 24.7949 13.9037 24.7949 13.2452C24.7949 12.5852 24.2699 12.0602 23.6249 12.0602Z" fill="#F4F7FB"/>
</g>
</svg>
