<svg width="36" height="36" viewBox="0 0 36 36" opacity="0.25" className="svg" fill="none" xmlns="http://www.w3.org/2000/svg">
<g>
<path d="M11.8799 20.2047C13.9949 20.2047 15.6899 21.9162 15.6899 24.0462V29.1597C15.6899 31.2747 13.9949 32.9997 11.8799 32.9997H6.80991C4.70991 32.9997 2.99991 31.2747 2.99991 29.1597V24.0462C2.99991 21.9162 4.70991 20.2047 6.80991 20.2047H11.8799ZM29.19 20.2047C31.29 20.2047 33 21.9162 33 24.0462V29.1597C33 31.2747 31.29 32.9997 29.19 32.9997H24.12C22.005 32.9997 20.31 31.2747 20.31 29.1597V24.0462C20.31 21.9162 22.005 20.2047 24.12 20.2047H29.19ZM11.8799 3.00012C13.9949 3.00012 15.6899 4.72512 15.6899 6.84162V11.9551C15.6899 14.0851 13.9949 15.7951 11.8799 15.7951H6.80991C4.70991 15.7951 2.99991 14.0851 2.99991 11.9551V6.84162C2.99991 4.72512 4.70991 3.00012 6.80991 3.00012H11.8799ZM29.19 3.00012C31.29 3.00012 33 4.72512 33 6.84162V11.9551C33 14.0851 31.29 15.7951 29.19 15.7951H24.12C22.005 15.7951 20.31 14.0851 20.31 11.9551V6.84162C20.31 4.72512 22.005 3.00012 24.12 3.00012H29.19Z" fill="#F4F7FB"/>
</g>
</svg>
