<svg width="36" height="36" viewBox="0 0 36 36" opacity="0.25" className="svg" fill="none" xmlns="http://www.w3.org/2000/svg">
<g>
<path d="M18.03 2.99994C26.55 2.99994 33 9.98542 33 17.9774C33 27.2463 25.44 32.9999 18 32.9999C15.54 32.9999 12.81 32.339 10.62 31.047C9.85502 30.5813 9.21002 30.2358 8.38502 30.5062L5.35502 31.4076C4.59002 31.6479 3.90002 31.047 4.12502 30.2358L5.13002 26.8708C5.29502 26.4051 5.26502 25.9093 5.02502 25.5187C3.73502 23.1452 3.00002 20.5463 3.00002 18.0225C3.00002 10.1206 9.31502 2.99994 18.03 2.99994ZM24.885 16.1146C23.82 16.1146 22.965 16.9709 22.965 18.0375C22.965 19.0891 23.82 19.9604 24.885 19.9604C25.95 19.9604 26.805 19.0891 26.805 18.0375C26.805 16.9709 25.95 16.1146 24.885 16.1146ZM17.97 16.1146C16.92 16.0996 16.05 16.9709 16.05 18.0225C16.05 19.0891 16.905 19.9454 17.97 19.9604C19.035 19.9604 19.89 19.0891 19.89 18.0375C19.89 16.9709 19.035 16.1146 17.97 16.1146ZM11.055 16.1146C9.99002 16.1146 9.13502 16.9709 9.13502 18.0375C9.13502 19.0891 10.005 19.9604 11.055 19.9604C12.12 19.9454 12.975 19.0891 12.975 18.0375C12.975 16.9709 12.12 16.1146 11.055 16.1146Z"   fill="#F4F7FB"/>
</g>
</svg>
