<svg width="36" height="36" viewBox="0 0 36 36" fill="none" opacity="0.25" className="svg" xmlns="http://www.w3.org/2000/svg">
<g>
<path d="M24.2865 2.99994C28.92 2.99994 31.5 5.66994 31.5 10.2449V25.7399C31.5 30.3899 28.92 32.9999 24.2865 32.9999H11.715C7.155 32.9999 4.5 30.3899 4.5 25.7399V10.2449C4.5 5.66994 7.155 2.99994 11.715 2.99994H24.2865ZM12.12 23.6099C11.67 23.5649 11.235 23.7749 10.995 24.1649C10.755 24.5399 10.755 25.0349 10.995 25.4249C11.235 25.7999 11.67 26.0249 12.12 25.9649H23.88C24.4785 25.9049 24.93 25.3934 24.93 24.7949C24.93 24.1799 24.4785 23.6699 23.88 23.6099H12.12ZM23.88 16.7684H12.12C11.4735 16.7684 10.95 17.2949 10.95 17.9399C10.95 18.5849 11.4735 19.1099 12.12 19.1099H23.88C24.525 19.1099 25.05 18.5849 25.05 17.9399C25.05 17.2949 24.525 16.7684 23.88 16.7684ZM16.6035 9.97494H12.12V9.98994C11.4735 9.98994 10.95 10.5149 10.95 11.1599C10.95 11.8049 11.4735 12.3299 12.12 12.3299H16.6035C17.25 12.3299 17.775 11.8049 17.775 11.1434C17.775 10.4999 17.25 9.97494 16.6035 9.97494Z"  fill="#F4F7FB"/>
</g>
</svg>
