<svg width="24" height="24" viewBox="0 0 24 24" fill="none" xmlns="http://www.w3.org/2000/svg">
<g >
<path d="M21.71 11L17.71 4C17.5363 3.69918 17.2873 3.44876 16.9875 3.27342C16.6877 3.09807 16.3473 3.00384 16 3H7.99999C7.65437 3.00557 7.31609 3.10061 7.01815 3.27587C6.72021 3.45113 6.47278 3.70062 6.29999 4L2.29999 11C2.12446 11.304 2.03204 11.6489 2.03204 12C2.03204 12.3511 2.12446 12.696 2.29999 13L6.29999 20C6.47278 20.2994 6.72021 20.5489 7.01815 20.7241C7.31609 20.8994 7.65437 20.9944 7.99999 21H16C16.3524 21.0014 16.6989 20.9096 17.0045 20.734C17.3101 20.5584 17.5638 20.3052 17.74 20L21.74 13C21.911 12.6933 21.9982 12.3471 21.993 11.996C21.9877 11.6449 21.8901 11.3014 21.71 11ZM12 14C11.6044 14 11.2178 13.8827 10.8889 13.6629C10.56 13.4432 10.3036 13.1308 10.1522 12.7654C10.0009 12.3999 9.96125 11.9978 10.0384 11.6098C10.1156 11.2219 10.3061 10.8655 10.5858 10.5858C10.8655 10.3061 11.2218 10.1156 11.6098 10.0384C11.9978 9.96126 12.3999 10.0009 12.7654 10.1522C13.1308 10.3036 13.4432 10.56 13.6629 10.8889C13.8827 11.2178 14 11.6044 14 12C14 12.5304 13.7893 13.0391 13.4142 13.4142C13.0391 13.7893 12.5304 14 12 14Z" fill="#808891" class="pro-svg"/>
</g>
</svg>
