<svg width="295" height="295" viewBox="0 0 295 295" fill="none" xmlns="http://www.w3.org/2000/svg">
<path d="M245.045 153.329C245.015 108.2 251.8 96.2525 227.345 58.1267C202.889 20.0009 142.939 11.558 97.6038 39.8367C52.2682 68.1154 40.0788 104.483 40.0788 104.483C40.0788 104.483 23.6296 146.963 46.7458 189.738C67.8855 228.867 109.516 251.098 145.624 269.388H237.953C243.565 264.658 248.337 259.013 252.066 252.691C270.869 221.049 245.08 198.458 245.045 153.329Z" fill="#5AC8FA"/>
<path opacity="0.7" d="M245.045 153.329C245.015 108.2 251.8 96.2525 227.345 58.1267C202.889 20.0009 142.939 11.558 97.6038 39.8367C52.2682 68.1154 40.0788 104.483 40.0788 104.483C40.0788 104.483 23.6296 146.963 46.7458 189.738C67.8855 228.867 109.516 251.098 145.624 269.388H237.953C243.565 264.658 248.337 259.013 252.066 252.691C270.869 221.049 245.08 198.458 245.045 153.329Z" fill="white"/>
<path d="M135.576 29.9245C136.373 33.081 135.983 27.2695 137.547 20.1541C139.11 13.0387 141.783 15.9297 141.783 15.9297" stroke="#263238" stroke-width="0.59" stroke-linecap="round" stroke-linejoin="round"/>
<path d="M135.086 22.6554L139.989 20.6494" stroke="#263238" stroke-width="0.59" stroke-linecap="round" stroke-linejoin="round"/>
<path d="M144.043 18.2432C144.043 18.2432 141.093 24.2966 145.524 26.8749" stroke="#263238" stroke-width="0.59" stroke-linecap="round" stroke-linejoin="round"/>
<path d="M148.196 16.5195C148.196 16.5195 153.028 19.204 150.002 25.0214" stroke="#263238" stroke-width="0.59" stroke-linecap="round" stroke-linejoin="round"/>
<path d="M144.88 20.29L148.344 22.8211" stroke="#263238" stroke-width="0.59" stroke-linecap="round" stroke-linejoin="round"/>
<path d="M147.6 19.1807L144.886 23.4936" stroke="#263238" stroke-width="0.59" stroke-linecap="round" stroke-linejoin="round"/>
<path d="M42.073 172.527C42.073 172.527 33.8543 172.409 33.813 179.501" stroke="#263238" stroke-width="0.59" stroke-linecap="round" stroke-linejoin="round"/>
<path d="M41.3887 176.999C41.2176 175.955 37.6422 174.639 37.0227 177.365C36.4032 180.091 40.8459 178.457 42.2206 177.182C42.2206 177.182 39.6718 179.66 40.4506 180.357" stroke="#263238" stroke-width="0.59" stroke-linecap="round" stroke-linejoin="round"/>
<path d="M41.89 181.13C41.89 181.13 40.8103 182.481 39.6421 181.838" stroke="#263238" stroke-width="0.59" stroke-linecap="round" stroke-linejoin="round"/>
<path d="M49.082 176.409L42.9165 182.669C42.9165 182.669 46.0199 179.524 47.8194 180.539C50.0614 181.766 47.1527 185.129 44.7573 182.722" stroke="#263238" stroke-width="0.59" stroke-linecap="round" stroke-linejoin="round"/>
<path d="M52.1972 178.097C52.1972 178.097 53.8315 185.584 45.3945 185.849" stroke="#263238" stroke-width="0.59" stroke-linecap="round" stroke-linejoin="round"/>
<path d="M162.268 50.8161L165.241 51.3058L165.282 58.0613L171.796 46.1846L182.074 47.872" stroke="#263238" stroke-width="0.59" stroke-linecap="round" stroke-linejoin="round"/>
<path d="M172.923 51.3887L177.442 59.3655" stroke="#263238" stroke-width="0.59" stroke-linecap="round" stroke-linejoin="round"/>
<path d="M178.605 52.3213L170.516 58.2272" stroke="#263238" stroke-width="0.59" stroke-linecap="round" stroke-linejoin="round"/>
<path d="M121.635 62.84C120.873 61.8724 116.49 62.5627 117.381 65.6661C118.272 68.7695 121.894 64.6336 122.584 62.5627C122.584 62.5627 121.375 66.5216 122.584 66.7871" stroke="#263238" stroke-width="0.59" stroke-linecap="round" stroke-linejoin="round"/>
<path d="M124.992 59.6484L124.012 63.1294C124.012 63.1294 124.502 61.3594 125.363 61.3594C126.419 61.3594 126.036 63.1294 124.685 62.7636" stroke="#263238" stroke-width="0.59" stroke-linecap="round" stroke-linejoin="round"/>
<path d="M207.639 102.554L205.574 110.017L210.087 114.961" stroke="#263238" stroke-width="0.59" stroke-linecap="round" stroke-linejoin="round"/>
<path d="M210.223 105.586L215.392 109.911" stroke="#263238" stroke-width="0.59" stroke-linecap="round" stroke-linejoin="round"/>
<path d="M213.781 104.523L211.544 110.016" stroke="#263238" stroke-width="0.59" stroke-linecap="round" stroke-linejoin="round"/>
<path d="M217.415 109.309C217.415 109.309 217.462 110.866 216.79 111.079" stroke="#263238" stroke-width="0.59" stroke-linecap="round" stroke-linejoin="round"/>
<path d="M218.07 103.869L221.191 106.188" stroke="#263238" stroke-width="0.59" stroke-linecap="round" stroke-linejoin="round"/>
<path d="M222.347 101.964L219.268 113.056" stroke="#263238" stroke-width="0.59" stroke-linecap="round" stroke-linejoin="round"/>
<path d="M222.501 98.1104L227.504 103.774L225.374 109.969" stroke="#263238" stroke-width="0.59" stroke-linecap="round" stroke-linejoin="round"/>
<path d="M84.7124 244.266L91.9517 222.719L100.731 232.519L84.7124 244.266Z" stroke="#263238" stroke-width="0.59" stroke-linecap="round" stroke-linejoin="round"/>
<path d="M98.5772 234.094L96.7246 231.976L98.7011 230.265" stroke="#263238" stroke-width="0.59" stroke-linecap="round" stroke-linejoin="round"/>
<path d="M41.9219 123.208C45.6819 121.651 47.4674 117.34 45.91 113.58C44.3525 109.82 40.0418 108.035 36.2818 109.592C32.5217 111.15 30.7362 115.46 32.2937 119.22C33.8511 122.98 38.1618 124.766 41.9219 123.208Z" stroke="#263238" stroke-width="0.59" stroke-linecap="round" stroke-linejoin="round"/>
<path d="M47.2765 118.123C51.7928 118.123 55.4539 114.462 55.4539 109.946C55.4539 105.43 51.7928 101.769 47.2765 101.769C42.7603 101.769 39.0991 105.43 39.0991 109.946C39.0991 114.462 42.7603 118.123 47.2765 118.123Z" stroke="#263238" stroke-width="0.59" stroke-linecap="round" stroke-linejoin="round"/>
<path d="M40.5508 109.173L39.5537 112.636" stroke="#263238" stroke-width="0.59" stroke-linecap="round" stroke-linejoin="round"/>
<path d="M41.9609 109.604L40.5508 114.596" stroke="#263238" stroke-width="0.59" stroke-linecap="round" stroke-linejoin="round"/>
<path d="M43.4418 110.441L41.9609 116.088" stroke="#263238" stroke-width="0.59" stroke-linecap="round" stroke-linejoin="round"/>
<path d="M45.0878 112.1L44.0317 117.457" stroke="#263238" stroke-width="0.59" stroke-linecap="round" stroke-linejoin="round"/>
<path d="M46.0142 113.846L45.0879 117.828" stroke="#263238" stroke-width="0.59" stroke-linecap="round" stroke-linejoin="round"/>
<path d="M32.0545 106.955C31.4114 106.76 29.6473 108.436 31.0161 109.563C32.3849 110.69 32.733 107.687 32.3967 106.536C32.3967 106.536 33.087 108.701 33.7124 108.442" stroke="#263238" stroke-width="0.59" stroke-linecap="round" stroke-linejoin="round"/>
<path d="M41.5654 97.4971L43.9254 101.792C43.9254 101.792 42.7454 99.6447 43.5773 98.8423C44.5921 97.8511 45.9373 99.9456 44.2381 100.825" stroke="#263238" stroke-width="0.59" stroke-linecap="round" stroke-linejoin="round"/>
<path d="M84.6885 96.9844L88.022 100.141" stroke="#263238" stroke-width="0.59" stroke-linecap="round" stroke-linejoin="round"/>
<path d="M88.0221 96.1641L85.2314 100.329" stroke="#263238" stroke-width="0.59" stroke-linecap="round" stroke-linejoin="round"/>
<path d="M91.3027 97.3611L94.6362 96.1162" stroke="#263238" stroke-width="0.59" stroke-linecap="round" stroke-linejoin="round"/>
<path d="M96.2349 92.6416L98.2645 94.4352" stroke="#263238" stroke-width="0.59" stroke-linecap="round" stroke-linejoin="round"/>
<path d="M99.8165 90.4824L97.25 99.297" stroke="#263238" stroke-width="0.59" stroke-linecap="round" stroke-linejoin="round"/>
<path d="M245.522 88.7124L245.381 81.9746H250.473C250.473 81.9746 247.652 83.5322 248.95 87.1548C250.248 90.7774 252.337 88.7124 252.337 88.7124" stroke="#263238" stroke-width="0.59" stroke-linecap="round" stroke-linejoin="round"/>
<path d="M236.897 203.65L242.691 199.661L250.361 200.198L250.839 209.921L245.21 213.951L238.26 213.444L236.897 203.65Z" stroke="#263238" stroke-width="0.59" stroke-linecap="round" stroke-linejoin="round"/>
<path d="M238.26 213.444L243.865 209.408L250.839 209.922" stroke="#263238" stroke-width="0.59" stroke-linecap="round" stroke-linejoin="round"/>
<path d="M243.87 209.408L242.69 199.661" stroke="#263238" stroke-width="0.59" stroke-linecap="round" stroke-linejoin="round"/>
<path d="M236.897 203.65L244.549 204.535L250.361 200.198" stroke="#263238" stroke-width="0.59" stroke-linecap="round" stroke-linejoin="round"/>
<path d="M244.549 204.535L245.21 213.952" stroke="#263238" stroke-width="0.59" stroke-linecap="round" stroke-linejoin="round"/>
<path d="M237.953 130.62L237.705 143.582L249.063 138.426L237.953 130.62Z" stroke="#263238" stroke-width="0.59" stroke-linecap="round" stroke-linejoin="round"/>
<path d="M237.953 130.62L243.363 140.939" stroke="#263238" stroke-width="0.59" stroke-linecap="round" stroke-linejoin="round"/>
<path d="M242.496 139.281L243.811 138.644L244.696 140.408" stroke="#263238" stroke-width="0.59" stroke-linecap="round" stroke-linejoin="round"/>
<path d="M138.927 129.393L143.624 134.425" stroke="#263238" stroke-width="0.59" stroke-linecap="round" stroke-linejoin="round"/>
<path d="M143.659 128.714L139.712 134.118" stroke="#263238" stroke-width="0.59" stroke-linecap="round" stroke-linejoin="round"/>
<path d="M145.583 126.077C145.808 125.973 146.066 125.962 146.299 126.047C146.532 126.132 146.723 126.307 146.828 126.532C146.865 126.612 146.89 126.698 146.904 126.785C147.134 127.918 145.276 129.393 145.276 129.393H147.925" stroke="#263238" stroke-width="0.59" stroke-linecap="round" stroke-linejoin="round"/>
<path d="M65.8086 53.9841C66.0334 51.1254 66.9751 48.3694 68.5467 45.9708C70.1183 43.5722 72.269 41.6084 74.8002 40.2607" stroke="#263238" stroke-width="0.59" stroke-linecap="round" stroke-linejoin="round"/>
<path d="M78.8534 71.9799C74.5504 70.9478 70.8166 68.2844 68.4399 64.5518" stroke="#263238" stroke-width="0.59" stroke-linecap="round" stroke-linejoin="round"/>
<path d="M99.887 56.7041C99.5228 61.2226 97.3803 65.4118 93.9301 68.3521C90.4799 71.2924 86.0039 72.7433 81.4849 72.3863" stroke="#263238" stroke-width="0.59" stroke-linecap="round" stroke-linejoin="round"/>
<path d="M84.2046 38.3086C88.0893 38.62 91.7513 40.2483 94.5848 42.924C97.4182 45.5998 99.2533 49.1626 99.7865 53.0232" stroke="#263238" stroke-width="0.59" stroke-linecap="round" stroke-linejoin="round"/>
<path d="M90.223 68.5042C87.8381 69.8422 85.1343 70.5069 82.4008 70.4271C79.6673 70.3472 77.0069 69.5259 74.7041 68.0509C72.4013 66.5759 70.5428 64.5028 69.3272 62.0531C68.1117 59.6035 67.5848 56.8695 67.803 54.1436" stroke="#263238" stroke-width="0.59" stroke-linecap="round" stroke-linejoin="round"/>
<path d="M68.7705 49.9201C69.5644 47.8562 70.8023 45.9921 72.3965 44.4597C73.9908 42.9274 75.9024 41.7642 77.9961 41.0526C80.0897 40.3409 82.3142 40.0983 84.5121 40.3417C86.7099 40.5852 88.8274 41.3088 90.7145 42.4614C92.6017 43.614 94.2124 45.1674 95.4326 47.0116C96.6528 48.8557 97.4527 50.9456 97.7756 53.1331C98.0985 55.3207 97.9366 57.5526 97.3013 59.6706C96.666 61.7887 95.5728 63.7412 94.0992 65.3899" stroke="#263238" stroke-width="0.59" stroke-linecap="round" stroke-linejoin="round"/>
<path d="M81.3672 44.4912L82.8481 55.3472L91.1907 52.7512" stroke="#263238" stroke-width="0.59" stroke-linecap="round" stroke-linejoin="round"/>
<path d="M212.931 76.4465C210.533 76.4696 208.184 75.7636 206.196 74.422C204.208 73.0803 202.675 71.1663 201.799 68.9336C200.923 66.7009 200.746 64.2547 201.292 61.9192C201.837 59.5837 203.08 57.4691 204.854 55.8555" stroke="#263238" stroke-width="0.59" stroke-linecap="round" stroke-linejoin="round"/>
<path d="M224.017 68.4395C223.442 70.1351 222.489 71.6776 221.23 72.9502C219.97 74.2229 218.438 75.1923 216.749 75.785" stroke="#263238" stroke-width="0.59" stroke-linecap="round" stroke-linejoin="round"/>
<path d="M208.89 53.4474C211.85 52.4056 215.103 52.5824 217.934 53.9389C220.764 55.2954 222.939 57.7205 223.982 60.6808" stroke="#263238" stroke-width="0.59" stroke-linecap="round" stroke-linejoin="round"/>
<path d="M218.66 55.9551C219.883 56.7816 220.917 57.8579 221.693 59.1132C222.47 60.3684 222.971 61.774 223.165 63.2373C223.359 64.7006 223.24 66.1883 222.817 67.6023C222.393 69.0164 221.675 70.3246 220.709 71.4408C219.744 72.557 218.552 73.4557 217.213 74.0778C215.875 74.6998 214.42 75.0311 212.944 75.0496C211.468 75.0682 210.005 74.7737 208.651 74.1855C207.297 73.5973 206.083 72.7288 205.09 71.6373" stroke="#263238" stroke-width="0.59" stroke-linecap="round" stroke-linejoin="round"/>
<path d="M202.96 68.0736C202.332 66.2868 202.202 64.363 202.583 62.5079C202.965 60.6528 203.843 58.9364 205.125 57.5423C206.407 56.1482 208.044 55.129 209.861 54.5937C211.677 54.0585 213.605 54.0273 215.438 54.5036" stroke="#263238" stroke-width="0.59" stroke-linecap="round" stroke-linejoin="round"/>
<path d="M208.831 58.1621L212.819 64.6108L209.185 69.3249" stroke="#263238" stroke-width="0.59" stroke-linecap="round" stroke-linejoin="round"/>
<path d="M129.21 240.973C129.204 239.425 129.578 237.9 130.298 236.53C131.018 235.16 132.062 233.987 133.34 233.114" stroke="#263238" stroke-width="0.59" stroke-linecap="round" stroke-linejoin="round"/>
<path d="M145.559 247.51C144.434 248.694 143.022 249.567 141.46 250.045C139.899 250.523 138.241 250.591 136.645 250.241C135.05 249.891 133.572 249.135 132.355 248.047C131.137 246.959 130.22 245.575 129.694 244.029" stroke="#263238" stroke-width="0.59" stroke-linecap="round" stroke-linejoin="round"/>
<path d="M138.679 231.48C141.197 231.48 143.612 232.481 145.392 234.261C147.172 236.041 148.172 238.456 148.172 240.974" stroke="#263238" stroke-width="0.59" stroke-linecap="round" stroke-linejoin="round"/>
<path d="M138.679 249.346C136.459 249.346 134.329 248.464 132.759 246.894C131.189 245.324 130.307 243.194 130.307 240.974V240.974" stroke="#263238" stroke-width="0.59" stroke-linecap="round" stroke-linejoin="round"/>
<path d="M132.16 235.716C132.936 234.757 133.915 233.982 135.025 233.445C136.136 232.908 137.351 232.623 138.585 232.61C139.818 232.597 141.039 232.857 142.161 233.37C143.282 233.884 144.276 234.639 145.072 235.581C145.868 236.524 146.446 237.63 146.765 238.822C147.084 240.013 147.136 241.261 146.917 242.475C146.698 243.689 146.214 244.839 145.499 245.844C144.783 246.849 143.855 247.684 142.78 248.289" stroke="#263238" stroke-width="0.59" stroke-linecap="round" stroke-linejoin="round"/>
<path d="M137.381 246.661L138.679 240.973L136.868 236.324" stroke="#263238" stroke-width="0.59" stroke-linecap="round" stroke-linejoin="round"/>
<path d="M28.1489 269.6H266.851" stroke="#263238" stroke-width="0.59" stroke-linecap="round" stroke-linejoin="round"/>
<path d="M149.264 145.187L145.376 219.214L96.1167 216.63L96.5297 208.783L100.005 142.597L131.021 144.225L149.264 145.187Z" fill="white"/>
<path opacity="0.2" d="M133.889 188.558L122.791 189.472L126.03 203.449L96.5298 208.783L100.005 142.597L131.021 144.225L133.889 188.558Z" fill="black" fill-opacity="0.7"/>
<path d="M149.264 145.187L145.376 219.214L96.1167 216.63L96.5297 208.783L100.005 142.597L131.021 144.225L149.264 145.187Z" stroke="#263238" stroke-width="0.59" stroke-linecap="round" stroke-linejoin="round"/>
<path d="M103.48 147.658L116.301 148.331" stroke="#263238" stroke-width="1.18" stroke-linecap="round" stroke-linejoin="round"/>
<path d="M103.35 150.119L112.07 150.579" stroke="#263238" stroke-width="1.18" stroke-linecap="round" stroke-linejoin="round"/>
<path d="M106.17 156.096L143.045 158.031" stroke="#263238" stroke-width="1.18" stroke-linecap="round" stroke-linejoin="round"/>
<path d="M106.041 158.557L142.916 160.492" stroke="#263238" stroke-width="1.18" stroke-linecap="round" stroke-linejoin="round"/>
<path d="M105.893 161.429L137.34 163.075" stroke="#263238" stroke-width="1.18" stroke-linecap="round" stroke-linejoin="round"/>
<path d="M105.906 164.05L105.748 167.049L108.747 167.207L108.905 164.208L105.906 164.05Z" stroke="#263238" stroke-width="0.59" stroke-linecap="round" stroke-linejoin="round"/>
<path d="M111.342 164.338L111.184 167.337L114.183 167.495L114.341 164.496L111.342 164.338Z" stroke="#263238" stroke-width="0.59" stroke-linecap="round" stroke-linejoin="round"/>
<path d="M116.771 164.626L116.614 167.625L119.613 167.783L119.77 164.784L116.771 164.626Z" stroke="#263238" stroke-width="0.59" stroke-linecap="round" stroke-linejoin="round"/>
<path d="M122.207 164.914L122.049 167.913L125.048 168.071L125.206 165.072L122.207 164.914Z" stroke="#263238" stroke-width="0.59" stroke-linecap="round" stroke-linejoin="round"/>
<path d="M104.206 155.99C104.202 156.087 104.179 156.183 104.138 156.272C104.097 156.361 104.039 156.441 103.967 156.507C103.895 156.573 103.811 156.625 103.719 156.659C103.628 156.692 103.53 156.708 103.433 156.704C103.234 156.694 103.047 156.605 102.914 156.457C102.781 156.309 102.712 156.115 102.722 155.916C102.732 155.717 102.821 155.531 102.968 155.397C103.116 155.264 103.311 155.195 103.509 155.205C103.607 155.21 103.703 155.233 103.791 155.275C103.88 155.317 103.959 155.375 104.025 155.448C104.091 155.52 104.142 155.605 104.175 155.697C104.208 155.789 104.222 155.886 104.217 155.984L104.206 155.99Z" fill="#263238"/>
<path d="M105.415 170.45L142.29 172.385" stroke="#263238" stroke-width="1.18" stroke-linecap="round" stroke-linejoin="round"/>
<path d="M105.285 172.911L142.16 174.846" stroke="#263238" stroke-width="1.18" stroke-linecap="round" stroke-linejoin="round"/>
<path d="M105.138 175.784L136.585 177.43" stroke="#263238" stroke-width="1.18" stroke-linecap="round" stroke-linejoin="round"/>
<path d="M105.145 178.414L104.987 181.413L107.986 181.571L108.143 178.572L105.145 178.414Z" stroke="#263238" stroke-width="0.59" stroke-linecap="round" stroke-linejoin="round"/>
<path d="M110.586 178.696L110.428 181.695L113.427 181.853L113.585 178.854L110.586 178.696Z" stroke="#263238" stroke-width="0.59" stroke-linecap="round" stroke-linejoin="round"/>
<path d="M116.016 178.979L115.858 181.978L118.857 182.135L119.015 179.136L116.016 178.979Z" stroke="#263238" stroke-width="0.59" stroke-linecap="round" stroke-linejoin="round"/>
<path d="M121.445 179.267L121.288 182.266L124.287 182.423L124.444 179.424L121.445 179.267Z" stroke="#263238" stroke-width="0.59" stroke-linecap="round" stroke-linejoin="round"/>
<path d="M103.456 170.344C103.452 170.443 103.428 170.539 103.386 170.629C103.344 170.718 103.285 170.798 103.212 170.864C103.139 170.93 103.054 170.982 102.961 171.015C102.868 171.048 102.77 171.063 102.672 171.058C102.523 171.051 102.379 171 102.259 170.911C102.139 170.822 102.048 170.7 101.997 170.56C101.947 170.419 101.939 170.267 101.975 170.122C102.011 169.977 102.089 169.846 102.199 169.746C102.31 169.645 102.448 169.58 102.595 169.557C102.743 169.535 102.894 169.557 103.029 169.62C103.164 169.684 103.277 169.786 103.354 169.914C103.432 170.042 103.469 170.189 103.462 170.339L103.456 170.344Z" fill="#263238"/>
<path d="M104.666 184.805L141.535 186.74" stroke="#263238" stroke-width="1.18" stroke-linecap="round" stroke-linejoin="round"/>
<path d="M104.536 187.266L141.405 189.201" stroke="#263238" stroke-width="1.18" stroke-linecap="round" stroke-linejoin="round"/>
<path d="M104.383 190.133L135.83 191.785" stroke="#263238" stroke-width="1.18" stroke-linecap="round" stroke-linejoin="round"/>
<path d="M104.395 192.76L104.237 195.759L107.236 195.916L107.394 192.918L104.395 192.76Z" stroke="#263238" stroke-width="0.59" stroke-linecap="round" stroke-linejoin="round"/>
<path d="M110.467 193.03L110.317 196.035L113.322 196.185L113.472 193.18L110.467 193.03Z" stroke="#263238" stroke-width="0.590737" stroke-linecap="round" stroke-linejoin="round"/>
<path d="M115.26 193.337L115.102 196.336L118.101 196.494L118.259 193.495L115.26 193.337Z" stroke="#263238" stroke-width="0.59" stroke-linecap="round" stroke-linejoin="round"/>
<path d="M120.702 193.618L120.544 196.617L123.543 196.775L123.701 193.776L120.702 193.618Z" stroke="#263238" stroke-width="0.59" stroke-linecap="round" stroke-linejoin="round"/>
<path d="M102.701 184.699C102.696 184.797 102.673 184.894 102.631 184.983C102.589 185.072 102.53 185.152 102.457 185.219C102.384 185.285 102.299 185.336 102.206 185.369C102.113 185.403 102.015 185.418 101.916 185.413C101.716 185.413 101.524 185.333 101.382 185.192C101.241 185.05 101.161 184.858 101.161 184.658C101.161 184.457 101.241 184.265 101.382 184.124C101.524 183.982 101.716 183.902 101.916 183.902H102.023C102.121 183.907 102.218 183.931 102.307 183.973C102.396 184.015 102.476 184.074 102.542 184.147C102.609 184.219 102.66 184.305 102.693 184.397C102.726 184.49 102.741 184.589 102.736 184.687L102.701 184.699Z" fill="#263238"/>
<path d="M103.887 199.567L140.756 201.508" stroke="#263238" stroke-width="1.18" stroke-linecap="round" stroke-linejoin="round"/>
<path d="M103.757 202.027L140.632 203.968" stroke="#263238" stroke-width="1.18" stroke-linecap="round" stroke-linejoin="round"/>
<path d="M103.61 204.9L135.057 206.552" stroke="#263238" stroke-width="1.18" stroke-linecap="round" stroke-linejoin="round"/>
<path d="M103.613 207.529L103.456 210.528L106.455 210.686L106.612 207.687L103.613 207.529Z" stroke="#263238" stroke-width="0.59" stroke-linecap="round" stroke-linejoin="round"/>
<path d="M109.056 207.812L108.898 210.811L111.897 210.968L112.055 207.969L109.056 207.812Z" stroke="#263238" stroke-width="0.59" stroke-linecap="round" stroke-linejoin="round"/>
<path d="M114.497 208.094L114.339 211.093L117.338 211.25L117.496 208.252L114.497 208.094Z" stroke="#263238" stroke-width="0.59" stroke-linecap="round" stroke-linejoin="round"/>
<path d="M119.927 208.388L119.769 211.387L122.768 211.544L122.926 208.545L119.927 208.388Z" stroke="#263238" stroke-width="0.59" stroke-linecap="round" stroke-linejoin="round"/>
<path d="M101.922 199.466C101.914 199.614 101.862 199.756 101.773 199.875C101.684 199.993 101.562 200.082 101.422 200.131C101.282 200.18 101.131 200.187 100.987 200.15C100.844 200.113 100.715 200.034 100.616 199.924C100.517 199.814 100.453 199.677 100.432 199.53C100.411 199.383 100.434 199.234 100.498 199.1C100.562 198.967 100.665 198.855 100.792 198.78C100.919 198.704 101.066 198.668 101.214 198.676C101.313 198.681 101.409 198.706 101.498 198.748C101.587 198.791 101.667 198.851 101.732 198.924C101.798 198.998 101.849 199.083 101.881 199.176C101.914 199.269 101.928 199.368 101.922 199.466Z" fill="#263238"/>
<path d="M106.926 165.3L107.315 165.972L108.914 164.208" stroke="#263238" stroke-width="1.18" stroke-linecap="round" stroke-linejoin="round"/>
<path d="M117.05 180.044L117.439 180.716L119.038 178.952" stroke="#263238" stroke-width="1.18" stroke-linecap="round" stroke-linejoin="round"/>
<path d="M122.13 195.195L122.519 195.868L124.118 194.098" stroke="#263238" stroke-width="1.18" stroke-linecap="round" stroke-linejoin="round"/>
<path d="M110.094 208.718L110.483 209.384L112.082 207.62" stroke="#263238" stroke-width="1.18" stroke-linecap="round" stroke-linejoin="round"/>
<path d="M116.531 198.263L69.0063 211.473L49.1587 140.042L68.8352 134.573L96.6832 126.838L114.69 191.643L116.531 198.263Z" fill="white"/>
<path opacity="0.2" d="M114.69 191.643L77.9451 194.021L68.8354 134.573L96.6834 126.838L114.69 191.643Z" fill="black" fill-opacity="0.7"/>
<path d="M116.531 198.263L69.0063 211.473L49.1587 140.042L68.8352 134.573L96.6832 126.838L114.69 191.643L116.531 198.263Z" stroke="#263238" stroke-width="0.59" stroke-linecap="round" stroke-linejoin="round"/>
<path d="M54.0674 143.736L66.4338 140.302" stroke="#263238" stroke-width="1.18" stroke-linecap="round" stroke-linejoin="round"/>
<path d="M54.7227 146.113L63.1361 143.776" stroke="#263238" stroke-width="1.18" stroke-linecap="round" stroke-linejoin="round"/>
<path d="M59.2949 150.88L94.8719 140.997" stroke="#263238" stroke-width="1.18" stroke-linecap="round" stroke-linejoin="round"/>
<path d="M59.9556 153.252L95.5326 143.369" stroke="#263238" stroke-width="1.18" stroke-linecap="round" stroke-linejoin="round"/>
<path d="M60.7227 156.025L91.0664 147.594" stroke="#263238" stroke-width="1.18" stroke-linecap="round" stroke-linejoin="round"/>
<path d="M64.4721 157.703L61.5786 158.507L62.3827 161.4L65.2761 160.596L64.4721 157.703Z" stroke="#263238" stroke-width="0.59" stroke-linecap="round" stroke-linejoin="round"/>
<path d="M69.7182 156.24L66.8247 157.044L67.6288 159.937L70.5222 159.133L69.7182 156.24Z" stroke="#263238" stroke-width="0.59" stroke-linecap="round" stroke-linejoin="round"/>
<path d="M74.9652 154.782L72.0718 155.586L72.8758 158.479L75.7693 157.675L74.9652 154.782Z" stroke="#263238" stroke-width="0.59" stroke-linecap="round" stroke-linejoin="round"/>
<path d="M80.203 153.327L77.3096 154.131L78.1136 157.024L81.0071 156.22L80.203 153.327Z" stroke="#263238" stroke-width="0.59" stroke-linecap="round" stroke-linejoin="round"/>
<path d="M57.401 151.405C57.4543 151.597 57.4291 151.802 57.3312 151.975C57.2333 152.148 57.0706 152.275 56.8789 152.328C56.6872 152.381 56.4822 152.356 56.3091 152.258C56.1359 152.161 56.0087 151.998 55.9555 151.806C55.9023 151.614 55.9275 151.409 56.0254 151.236C56.1233 151.063 56.286 150.936 56.4777 150.883C56.6694 150.83 56.8744 150.855 57.0475 150.953C57.2207 151.051 57.3478 151.213 57.401 151.405Z" fill="#263238"/>
<path d="M63.1416 164.727L98.7186 154.845" stroke="#263238" stroke-width="1.18" stroke-linecap="round" stroke-linejoin="round"/>
<path d="M63.8022 167.105L99.3792 157.217" stroke="#263238" stroke-width="1.18" stroke-linecap="round" stroke-linejoin="round"/>
<path d="M64.5752 169.873L94.913 161.441" stroke="#263238" stroke-width="1.18" stroke-linecap="round" stroke-linejoin="round"/>
<path d="M68.3222 171.548L65.4287 172.352L66.2328 175.245L69.1262 174.441L68.3222 171.548Z" stroke="#263238" stroke-width="0.59" stroke-linecap="round" stroke-linejoin="round"/>
<path d="M73.5639 170.091L70.6704 170.896L71.4745 173.789L74.3679 172.985L73.5639 170.091Z" stroke="#263238" stroke-width="0.59" stroke-linecap="round" stroke-linejoin="round"/>
<path d="M78.8114 168.634L75.918 169.438L76.722 172.332L79.6155 171.528L78.8114 168.634Z" stroke="#263238" stroke-width="0.59" stroke-linecap="round" stroke-linejoin="round"/>
<path d="M84.0629 167.17L81.1694 167.974L81.9735 170.867L84.8669 170.063L84.0629 167.17Z" stroke="#263238" stroke-width="0.59" stroke-linecap="round" stroke-linejoin="round"/>
<path d="M61.2539 165.258C61.2938 165.402 61.2902 165.554 61.2435 165.696C61.1969 165.837 61.1093 165.962 60.9917 166.054C60.8742 166.146 60.7321 166.201 60.5832 166.213C60.4344 166.224 60.2856 166.191 60.1556 166.118C60.0255 166.044 59.9201 165.934 59.8526 165.801C59.7851 165.668 59.7586 165.518 59.7764 165.37C59.7942 165.221 59.8554 165.082 59.9525 164.968C60.0496 164.855 60.178 164.773 60.3217 164.733C60.4166 164.706 60.5159 164.698 60.6139 164.709C60.7119 164.721 60.8066 164.752 60.8927 164.8C60.9788 164.848 61.0545 164.913 61.1154 164.99C61.1764 165.068 61.2215 165.157 61.248 165.252L61.2539 165.258Z" fill="#263238"/>
<path d="M66.9941 178.581L102.565 168.692" stroke="#263238" stroke-width="1.18" stroke-linecap="round" stroke-linejoin="round"/>
<path d="M67.6553 180.953L103.226 171.07" stroke="#263238" stroke-width="1.18" stroke-linecap="round" stroke-linejoin="round"/>
<path d="M68.4224 183.725L98.7661 175.294" stroke="#263238" stroke-width="1.18" stroke-linecap="round" stroke-linejoin="round"/>
<path d="M72.1669 185.394L69.2734 186.198L70.0775 189.092L72.971 188.288L72.1669 185.394Z" stroke="#263238" stroke-width="0.59" stroke-linecap="round" stroke-linejoin="round"/>
<path d="M77.4203 183.936L74.5269 184.74L75.3309 187.634L78.2244 186.83L77.4203 183.936Z" stroke="#263238" stroke-width="0.59" stroke-linecap="round" stroke-linejoin="round"/>
<path d="M82.6562 182.48L79.7627 183.284L80.5668 186.178L83.4602 185.374L82.6562 182.48Z" stroke="#263238" stroke-width="0.59" stroke-linecap="round" stroke-linejoin="round"/>
<path d="M87.9037 181.023L85.0103 181.827L85.8143 184.721L88.7078 183.917L87.9037 181.023Z" stroke="#263238" stroke-width="0.59" stroke-linecap="round" stroke-linejoin="round"/>
<path d="M65.1006 179.106C65.1405 179.25 65.1369 179.403 65.0902 179.544C65.0436 179.686 64.9559 179.811 64.8384 179.903C64.7209 179.995 64.5787 180.05 64.4299 180.061C64.2811 180.073 64.1323 180.039 64.0022 179.966C63.8722 179.893 63.7668 179.783 63.6993 179.65C63.6318 179.517 63.6053 179.366 63.6231 179.218C63.6408 179.07 63.7021 178.93 63.7992 178.817C63.8962 178.704 64.0247 178.622 64.1684 178.581C64.2633 178.554 64.3626 178.546 64.4606 178.558C64.5586 178.569 64.6533 178.6 64.7394 178.648C64.8255 178.697 64.9011 178.761 64.9621 178.839C65.0231 178.917 65.0681 179.005 65.0947 179.1L65.1006 179.106Z" fill="#263238"/>
<path d="M70.9531 192.824L106.524 182.941" stroke="#263238" stroke-width="1.18" stroke-linecap="round" stroke-linejoin="round"/>
<path d="M71.6079 195.201L107.185 185.312" stroke="#263238" stroke-width="1.18" stroke-linecap="round" stroke-linejoin="round"/>
<path d="M72.3809 197.968L102.725 189.537" stroke="#263238" stroke-width="1.18" stroke-linecap="round" stroke-linejoin="round"/>
<path d="M76.1264 199.644L73.2329 200.448L74.037 203.342L76.9304 202.538L76.1264 199.644Z" stroke="#263238" stroke-width="0.59" stroke-linecap="round" stroke-linejoin="round"/>
<path d="M81.3734 198.185L78.48 198.989L79.284 201.883L82.1775 201.079L81.3734 198.185Z" stroke="#263238" stroke-width="0.59" stroke-linecap="round" stroke-linejoin="round"/>
<path d="M86.621 196.728L83.7275 197.532L84.5316 200.426L87.4251 199.622L86.621 196.728Z" stroke="#263238" stroke-width="0.59" stroke-linecap="round" stroke-linejoin="round"/>
<path d="M91.8632 195.272L88.9697 196.076L89.7738 198.97L92.6672 198.166L91.8632 195.272Z" stroke="#263238" stroke-width="0.59" stroke-linecap="round" stroke-linejoin="round"/>
<path d="M69.0593 193.349C69.1149 193.541 69.0917 193.748 68.9949 193.923C68.8981 194.098 68.7355 194.228 68.5431 194.284C68.3506 194.339 68.1439 194.316 67.9686 194.219C67.7932 194.122 67.6635 193.96 67.6079 193.767C67.5532 193.574 67.577 193.367 67.6743 193.191C67.7715 193.016 67.9343 192.886 68.1271 192.829C68.318 192.776 68.522 192.8 68.6953 192.896C68.8686 192.992 68.9972 193.153 69.0534 193.343L69.0593 193.349Z" fill="#263238"/>
<path d="M67.8735 157.99L68.4576 158.503L69.4134 156.32" stroke="#263238" stroke-width="1.18" stroke-linecap="round" stroke-linejoin="round"/>
<path d="M66.4517 173.441L67.0358 173.954L67.9857 171.771" stroke="#263238" stroke-width="1.18" stroke-linecap="round" stroke-linejoin="round"/>
<path d="M70.2983 187.147L70.8824 187.661L71.8323 185.478" stroke="#263238" stroke-width="1.18" stroke-linecap="round" stroke-linejoin="round"/>
<path d="M84.7354 198.375L85.3195 198.888L86.2753 196.705" stroke="#263238" stroke-width="1.18" stroke-linecap="round" stroke-linejoin="round"/>
<path d="M121.171 110.337L72.0737 115.056L79.1662 188.849L128.264 184.13L121.171 110.337Z" fill="white" stroke="#263238" stroke-width="0.59" stroke-linecap="round" stroke-linejoin="round"/>
<path d="M76.2573 119.557L89.0367 118.33" stroke="#263238" stroke-width="1.18" stroke-linecap="round" stroke-linejoin="round"/>
<path d="M76.4937 122.012L85.1844 121.174" stroke="#263238" stroke-width="1.18" stroke-linecap="round" stroke-linejoin="round"/>
<path d="M80.1631 127.505L116.914 123.971" stroke="#263238" stroke-width="1.18" stroke-linecap="round" stroke-linejoin="round"/>
<path d="M80.3994 129.953L117.151 126.425" stroke="#263238" stroke-width="1.18" stroke-linecap="round" stroke-linejoin="round"/>
<path d="M80.6763 132.815L112.023 129.806" stroke="#263238" stroke-width="1.18" stroke-linecap="round" stroke-linejoin="round"/>
<path d="M84.0787 135.115L81.0894 135.402L81.3767 138.392L84.366 138.104L84.0787 135.115Z" stroke="#263238" stroke-width="0.59" stroke-linecap="round" stroke-linejoin="round"/>
<path d="M89.4976 134.594L86.5083 134.881L86.7956 137.87L89.7849 137.583L89.4976 134.594Z" stroke="#263238" stroke-width="0.59" stroke-linecap="round" stroke-linejoin="round"/>
<path d="M94.9156 134.077L91.9263 134.364L92.2136 137.354L95.2029 137.066L94.9156 134.077Z" stroke="#263238" stroke-width="0.59" stroke-linecap="round" stroke-linejoin="round"/>
<path d="M100.334 133.55L97.3442 133.837L97.6316 136.826L100.621 136.539L100.334 133.55Z" stroke="#263238" stroke-width="0.59" stroke-linecap="round" stroke-linejoin="round"/>
<path d="M78.2105 127.693C78.2249 127.842 78.195 127.991 78.1244 128.123C78.0539 128.254 77.946 128.362 77.8142 128.432C77.6825 128.503 77.5329 128.532 77.3843 128.517C77.2357 128.503 77.0948 128.444 76.9795 128.35C76.8641 128.255 76.7794 128.128 76.7361 127.985C76.6928 127.842 76.6928 127.69 76.7361 127.547C76.7795 127.404 76.8642 127.277 76.9796 127.182C77.095 127.088 77.2359 127.029 77.3845 127.014C77.4825 127.005 77.5815 127.014 77.6758 127.043C77.7701 127.071 77.8578 127.118 77.934 127.181C78.0102 127.243 78.0733 127.32 78.1197 127.407C78.1661 127.494 78.195 127.589 78.2046 127.687L78.2105 127.693Z" fill="#263238"/>
<path d="M81.5376 141.811L118.289 138.283" stroke="#263238" stroke-width="1.18" stroke-linecap="round" stroke-linejoin="round"/>
<path d="M81.7739 144.267L118.525 140.732" stroke="#263238" stroke-width="1.18" stroke-linecap="round" stroke-linejoin="round"/>
<path d="M82.0513 147.127L113.398 144.112" stroke="#263238" stroke-width="1.18" stroke-linecap="round" stroke-linejoin="round"/>
<path d="M85.4532 149.421L82.4639 149.708L82.7512 152.697L85.7405 152.41L85.4532 149.421Z" stroke="#263238" stroke-width="0.59" stroke-linecap="round" stroke-linejoin="round"/>
<path d="M90.8716 148.904L87.8823 149.191L88.1696 152.181L91.159 151.893L90.8716 148.904Z" stroke="#263238" stroke-width="0.59" stroke-linecap="round" stroke-linejoin="round"/>
<path d="M96.2901 148.383L93.3008 148.67L93.5881 151.659L96.5774 151.372L96.2901 148.383Z" stroke="#263238" stroke-width="0.59" stroke-linecap="round" stroke-linejoin="round"/>
<path d="M101.709 147.873L98.7197 148.16L99.007 151.149L101.996 150.862L101.709 147.873Z" stroke="#263238" stroke-width="0.59" stroke-linecap="round" stroke-linejoin="round"/>
<path d="M79.585 142.001C79.5994 142.149 79.5695 142.299 79.499 142.43C79.4284 142.562 79.3205 142.67 79.1887 142.74C79.057 142.81 78.9074 142.84 78.7588 142.825C78.6102 142.81 78.4693 142.752 78.354 142.657C78.2386 142.562 78.1539 142.436 78.1106 142.293C78.0673 142.15 78.0673 141.997 78.1106 141.854C78.154 141.711 78.2387 141.585 78.3541 141.49C78.4695 141.395 78.6104 141.337 78.759 141.322C78.8578 141.312 78.9575 141.322 79.0526 141.351C79.1476 141.38 79.236 141.427 79.3127 141.49C79.3894 141.553 79.4529 141.631 79.4997 141.718C79.5464 141.806 79.5754 141.902 79.585 142.001Z" fill="#263238"/>
<path d="M82.9126 156.119L119.664 152.591" stroke="#263238" stroke-width="1.18" stroke-linecap="round" stroke-linejoin="round"/>
<path d="M83.1484 158.574L119.9 155.04" stroke="#263238" stroke-width="1.18" stroke-linecap="round" stroke-linejoin="round"/>
<path d="M83.4258 161.435L114.772 158.42" stroke="#263238" stroke-width="1.18" stroke-linecap="round" stroke-linejoin="round"/>
<path d="M86.8277 163.731L83.8384 164.019L84.1257 167.008L87.115 166.721L86.8277 163.731Z" stroke="#263238" stroke-width="0.59" stroke-linecap="round" stroke-linejoin="round"/>
<path d="M92.2462 163.21L89.2568 163.497L89.5442 166.486L92.5335 166.199L92.2462 163.21Z" stroke="#263238" stroke-width="0.59" stroke-linecap="round" stroke-linejoin="round"/>
<path d="M97.6646 162.693L94.6753 162.98L94.9626 165.97L97.9519 165.682L97.6646 162.693Z" stroke="#263238" stroke-width="0.59" stroke-linecap="round" stroke-linejoin="round"/>
<path d="M103.083 162.172L100.093 162.459L100.381 165.448L103.37 165.161L103.083 162.172Z" stroke="#263238" stroke-width="0.59" stroke-linecap="round" stroke-linejoin="round"/>
<path d="M80.9535 156.308C80.9669 156.455 80.9363 156.603 80.8654 156.734C80.7946 156.864 80.6867 156.97 80.5555 157.039C80.4243 157.108 80.2756 157.136 80.1282 157.12C79.9809 157.105 79.8415 157.046 79.7276 156.951C79.6138 156.856 79.5306 156.73 79.4887 156.587C79.4467 156.445 79.4478 156.294 79.4919 156.152C79.536 156.011 79.621 155.886 79.7363 155.793C79.8515 155.699 79.9918 155.643 80.1393 155.629C80.2374 155.62 80.3362 155.631 80.4301 155.66C80.5241 155.689 80.6114 155.737 80.687 155.8C80.7626 155.863 80.8251 155.94 80.8708 156.027C80.9165 156.114 80.9447 156.21 80.9535 156.308Z" fill="#263238"/>
<path d="M84.3286 170.84L121.08 167.306" stroke="#263238" stroke-width="1.18" stroke-linecap="round" stroke-linejoin="round"/>
<path d="M84.5645 173.288L121.316 169.76" stroke="#263238" stroke-width="1.18" stroke-linecap="round" stroke-linejoin="round"/>
<path d="M84.8359 176.15L116.183 173.141" stroke="#263238" stroke-width="1.18" stroke-linecap="round" stroke-linejoin="round"/>
<path d="M88.2413 178.449L85.252 178.736L85.5393 181.726L88.5286 181.438L88.2413 178.449Z" stroke="#263238" stroke-width="0.59" stroke-linecap="round" stroke-linejoin="round"/>
<path d="M93.6656 177.933L90.6763 178.221L90.9636 181.21L93.9529 180.923L93.6656 177.933Z" stroke="#263238" stroke-width="0.59" stroke-linecap="round" stroke-linejoin="round"/>
<path d="M99.0777 177.406L96.0884 177.693L96.3757 180.683L99.365 180.395L99.0777 177.406Z" stroke="#263238" stroke-width="0.59" stroke-linecap="round" stroke-linejoin="round"/>
<path d="M104.496 176.884L101.506 177.171L101.794 180.16L104.783 179.873L104.496 176.884Z" stroke="#263238" stroke-width="0.59" stroke-linecap="round" stroke-linejoin="round"/>
<path d="M82.37 171.023C82.3857 171.172 82.3568 171.322 82.2869 171.455C82.217 171.587 82.1093 171.696 81.9775 171.767C81.8456 171.838 81.6956 171.868 81.5465 171.854C81.3974 171.84 81.2559 171.781 81.1401 171.686C81.0242 171.591 80.9393 171.464 80.896 171.321C80.8527 171.177 80.853 171.024 80.897 170.881C80.9409 170.738 81.0264 170.611 81.1427 170.516C81.259 170.422 81.4007 170.364 81.5499 170.35C81.6479 170.341 81.7469 170.35 81.8412 170.379C81.9355 170.407 82.0232 170.454 82.0994 170.517C82.1756 170.579 82.2387 170.656 82.2851 170.743C82.3315 170.83 82.3604 170.925 82.37 171.023Z" fill="#263238"/>
<path d="M82.2695 136.496L82.7533 137.103L84.0749 135.121" stroke="#263238" stroke-width="1.18" stroke-linecap="round" stroke-linejoin="round"/>
<path d="M94.4648 149.583L94.9486 150.19L96.2643 148.208" stroke="#263238" stroke-width="1.18" stroke-linecap="round" stroke-linejoin="round"/>
<path d="M90.4468 164.71L90.9306 165.317L92.2522 163.335" stroke="#263238" stroke-width="1.18" stroke-linecap="round" stroke-linejoin="round"/>
<path d="M102.619 178.274L103.102 178.882L104.424 176.899" stroke="#263238" stroke-width="1.18" stroke-linecap="round" stroke-linejoin="round"/>
<path d="M181.218 81.249H150.733C149.656 81.249 148.624 81.6767 147.863 82.4379C147.101 83.1992 146.674 84.2317 146.674 85.3082V111.51C146.674 112.587 147.101 113.619 147.863 114.38C148.624 115.142 149.656 115.569 150.733 115.569H164.244L171.985 124.897L170.044 115.569H181.218C182.292 115.565 183.32 115.135 184.077 114.374C184.835 113.613 185.26 112.584 185.26 111.51V85.3082C185.26 84.2347 184.835 83.2049 184.077 82.4442C183.32 81.6834 182.292 81.2537 181.218 81.249Z" fill="white" stroke="#263238" stroke-width="0.59" stroke-linecap="round" stroke-linejoin="round"/>
<path d="M168.416 95.6215V92.8485L166.339 92.6715C166.215 92.2387 166.043 91.8211 165.825 91.4266L167.165 89.8336L165.2 87.8748L163.607 89.2141C163.214 88.9935 162.796 88.8212 162.362 88.7008L162.185 86.624H159.412L159.235 88.7008C158.801 88.8212 158.383 88.9935 157.99 89.2141L156.397 87.8748L154.433 89.8336L155.76 91.4502C155.54 91.844 155.366 92.2617 155.241 92.6951L153.164 92.8721V95.6451L155.241 95.828C155.366 96.2615 155.54 96.6792 155.76 97.0729L154.415 98.6659L156.38 100.625L157.973 99.2854C158.365 99.506 158.783 99.6784 159.217 99.7987L159.394 101.876H162.167L162.344 99.7987C162.779 99.6784 163.197 99.506 163.589 99.2854L165.182 100.625L167.147 98.6659L165.808 97.0729C166.025 96.6785 166.197 96.2609 166.321 95.828L168.416 95.6215ZM160.799 97.4623C160.16 97.4635 159.536 97.2753 159.005 96.9217C158.473 96.5681 158.059 96.0648 157.813 95.4755C157.568 94.8862 157.503 94.2375 157.626 93.6112C157.75 92.9849 158.056 92.4093 158.507 91.9572C158.957 91.505 159.532 91.1966 160.157 91.0709C160.783 90.9452 161.432 91.0079 162.022 91.2511C162.613 91.4943 163.117 91.9071 163.473 92.4371C163.828 92.9672 164.019 93.5908 164.02 94.2291C164.022 94.6524 163.94 95.0718 163.779 95.4633C163.618 95.8548 163.381 96.2106 163.082 96.5104C162.784 96.8103 162.429 97.0482 162.038 97.2105C161.647 97.3729 161.228 97.4564 160.805 97.4564L160.799 97.4623Z" fill="#5AC8FA"/>
<path d="M177.59 101.811V99.8401L176.109 99.7103C176.023 99.4017 175.9 99.1046 175.743 98.8253L176.699 97.6925L175.306 96.3001L174.168 97.25C173.887 97.0955 173.59 96.9728 173.283 96.8842L173.159 95.4092H171.182L171.058 96.8842C170.749 96.9728 170.45 97.0955 170.168 97.25L169.035 96.3001L167.642 97.6925L168.592 98.8253C168.437 99.1048 168.316 99.4019 168.232 99.7103L166.751 99.8401V101.811L168.232 101.94C168.316 102.249 168.437 102.546 168.592 102.825L167.642 103.958L169.035 105.357L170.168 104.401C170.448 104.56 170.747 104.683 171.058 104.767L171.182 106.247H173.159L173.283 104.767C173.592 104.683 173.89 104.56 174.168 104.401L175.306 105.357L176.699 103.958L175.743 102.825C175.902 102.547 176.025 102.25 176.109 101.94L177.59 101.811ZM172.168 103.12C171.714 103.12 171.27 102.986 170.893 102.734C170.515 102.481 170.221 102.123 170.047 101.704C169.874 101.284 169.828 100.823 169.917 100.378C170.005 99.9324 170.224 99.5235 170.545 99.2025C170.866 98.8815 171.275 98.6629 171.72 98.5744C172.165 98.4858 172.627 98.5313 173.046 98.705C173.465 98.8787 173.824 99.1729 174.076 99.5503C174.328 99.9277 174.463 100.371 174.463 100.825C174.463 101.434 174.221 102.018 173.791 102.448C173.36 102.879 172.776 103.12 172.168 103.12Z" fill="#5AC8FA"/>
<path d="M167.938 106.406V105.02L166.882 104.925C166.821 104.705 166.734 104.493 166.622 104.294L167.301 103.492L166.309 102.495L165.501 103.173C165.302 103.066 165.092 102.979 164.876 102.913L164.781 101.863H163.377L163.289 102.913C163.069 102.976 162.858 103.064 162.657 103.173L161.849 102.495L160.858 103.492L161.536 104.294C161.427 104.494 161.34 104.706 161.277 104.925L160.227 105.02V106.418L161.277 106.512C161.34 106.732 161.427 106.944 161.536 107.144L160.858 107.97L161.849 108.967L162.657 108.288C162.859 108.395 163.07 108.482 163.289 108.548L163.377 109.598H164.781L164.876 108.548C165.092 108.482 165.302 108.395 165.501 108.288L166.309 108.967L167.301 107.97L166.622 107.167C166.734 106.968 166.821 106.756 166.882 106.536L167.938 106.406ZM164.079 107.338C163.756 107.338 163.44 107.243 163.171 107.063C162.903 106.883 162.693 106.628 162.569 106.33C162.446 106.031 162.413 105.702 162.476 105.385C162.539 105.068 162.695 104.777 162.924 104.549C163.152 104.32 163.443 104.164 163.76 104.101C164.077 104.038 164.406 104.071 164.705 104.194C165.003 104.318 165.259 104.527 165.438 104.796C165.618 105.065 165.714 105.381 165.714 105.704C165.712 106.137 165.539 106.551 165.233 106.856C164.926 107.161 164.512 107.333 164.079 107.333V107.338Z" fill="#5AC8FA"/>
<path d="M165.159 181.938L188.924 269.601H192.476L168.716 181.938H165.159Z" fill="#757575" stroke="#263238" stroke-width="0.59" stroke-linecap="round" stroke-linejoin="round"/>
<path d="M218.684 244.75H173.637V248.42H218.684V244.75Z" fill="#999999" stroke="#263238" stroke-width="0.59" stroke-linecap="round" stroke-linejoin="round"/>
<path d="M242.714 162.25L213.61 269.63H210.07L239.168 162.25C240.242 158.291 237.782 155.07 233.681 155.07H208.606C204.512 155.07 200.299 158.291 199.225 162.25L170.115 269.63H166.575L195.679 162.25C197.267 156.391 203.473 151.63 209.539 151.63H234.619C240.667 151.63 244.301 156.385 242.714 162.25Z" fill="#757575" stroke="#263238" stroke-width="0.59" stroke-linecap="round" stroke-linejoin="round"/>
<path d="M243.175 162.28L235.953 188.936C235.605 190.058 234.918 191.045 233.986 191.76C233.054 192.476 231.923 192.885 230.749 192.931H189.544C189.047 192.97 188.548 192.884 188.093 192.68C187.638 192.477 187.241 192.163 186.938 191.767C186.636 191.371 186.437 190.906 186.36 190.414C186.284 189.921 186.331 189.417 186.499 188.948L193.727 162.292C194.078 161.172 194.766 160.189 195.698 159.476C196.629 158.763 197.759 158.356 198.931 158.309H240.13C240.523 158.281 240.918 158.331 241.292 158.455C241.665 158.58 242.011 158.777 242.308 159.035C242.606 159.293 242.85 159.607 243.026 159.959C243.202 160.312 243.306 160.695 243.334 161.088C243.361 161.492 243.307 161.897 243.175 162.28Z" fill="#5AC8FA"/>
<path opacity="0.2" d="M243.175 162.279L235.953 188.935C235.605 190.057 234.918 191.044 233.986 191.759C233.054 192.475 231.923 192.884 230.749 192.93H189.544C189.047 192.969 188.548 192.883 188.093 192.68C187.638 192.476 187.241 192.163 186.938 191.767C186.636 191.371 186.437 190.905 186.36 190.413C186.284 189.92 186.331 189.416 186.499 188.947L193.727 162.291C194.078 161.172 194.766 160.188 195.698 159.475C196.629 158.762 197.759 158.355 198.931 158.309H220.236C229.446 167.749 228.271 185.148 227.67 190.399C228.631 190.167 229.516 189.691 230.239 189.017C230.963 188.343 231.5 187.494 231.8 186.552L239.009 159.89C239.157 159.374 239.187 158.832 239.098 158.303H240.13C240.626 158.267 241.122 158.355 241.575 158.559C242.028 158.763 242.423 159.076 242.725 159.47C243.027 159.864 243.226 160.328 243.304 160.818C243.383 161.308 243.338 161.81 243.175 162.279Z" fill="black" fill-opacity="0.7"/>
<path d="M243.175 162.28L235.953 188.936C235.605 190.058 234.918 191.045 233.986 191.76C233.054 192.476 231.923 192.885 230.749 192.931H189.544C189.047 192.97 188.548 192.884 188.093 192.68C187.638 192.477 187.241 192.163 186.938 191.767C186.636 191.371 186.437 190.906 186.36 190.414C186.284 189.921 186.331 189.417 186.499 188.948L193.727 162.292C194.078 161.172 194.766 160.189 195.698 159.476C196.629 158.763 197.759 158.356 198.931 158.309H240.13C240.523 158.281 240.918 158.331 241.292 158.455C241.665 158.58 242.011 158.777 242.308 159.035C242.606 159.293 242.85 159.607 243.026 159.959C243.202 160.312 243.306 160.695 243.334 161.088C243.361 161.492 243.307 161.897 243.175 162.28V162.28Z" stroke="#263238" stroke-width="0.59" stroke-linecap="round" stroke-linejoin="round"/>
<path d="M218.949 219.899L232.425 269.601H235.977L222.507 219.899H218.949Z" fill="#757575" stroke="#263238" stroke-width="0.59" stroke-linecap="round" stroke-linejoin="round"/>
<path d="M222.519 214.17V219.032H169.466V214.17C169.466 213.222 169.843 212.312 170.513 211.642C171.184 210.971 172.093 210.595 173.041 210.595H218.937C219.408 210.593 219.873 210.685 220.308 210.864C220.743 211.043 221.138 211.306 221.471 211.638C221.804 211.97 222.068 212.365 222.247 212.8C222.427 213.234 222.519 213.7 222.519 214.17Z" fill="#5AC8FA"/>
<path opacity="0.2" d="M222.395 213.256C220.678 215.273 217.598 217.327 212.3 219.055H169.466V214.17C169.466 213.222 169.843 212.312 170.513 211.642C171.184 210.971 172.093 210.595 173.041 210.595H218.937C219.726 210.596 220.493 210.857 221.118 211.338C221.743 211.819 222.192 212.493 222.395 213.256Z" fill="black" fill-opacity="0.7"/>
<path d="M222.519 214.17V219.032H169.466V214.17C169.466 213.222 169.843 212.312 170.513 211.642C171.184 210.971 172.093 210.595 173.041 210.595H218.937C219.408 210.593 219.873 210.685 220.308 210.864C220.743 211.043 221.138 211.306 221.471 211.638C221.804 211.97 222.068 212.365 222.247 212.8C222.427 213.234 222.519 213.7 222.519 214.17V214.17Z" stroke="#263238" stroke-width="0.59" stroke-linecap="round" stroke-linejoin="round"/>
<path d="M224.318 217.562H168.127C167.569 217.562 167.118 218.014 167.118 218.571V221.114C167.118 221.671 167.569 222.123 168.127 222.123H224.318C224.875 222.123 225.327 221.671 225.327 221.114V218.571C225.327 218.014 224.875 217.562 224.318 217.562Z" fill="#999999" stroke="#263238" stroke-width="0.59" stroke-linecap="round" stroke-linejoin="round"/>
<path d="M167.743 217.71C165.2 220.3 177.525 260.999 177.525 260.999C176.18 262.179 174.198 262.721 172.322 262.969C170.597 263.183 168.854 263.209 167.124 263.046C167.124 263.046 149.459 220.2 154.321 209.568C159.182 198.936 189.349 194.11 189.349 194.11L190.635 190.924L206.241 188.729L208.819 207.84C208.819 207.84 206.258 208.087 202.406 208.583C192.075 209.893 172.416 212.99 167.743 217.71Z" fill="#263238"/>
<path opacity="0.3" d="M177.525 261.022C176.18 262.202 174.197 262.745 172.321 262.992C168.893 250.248 160.167 216.241 163.471 212.081C167.548 206.948 187.726 202.281 187.726 202.281C187.809 199.662 194.883 197.302 194.883 197.302L202.399 208.565C192.068 209.892 172.41 212.99 167.737 217.71C165.2 220.324 177.525 261.022 177.525 261.022Z" fill="black"/>
<path d="M167.743 217.71C165.2 220.3 177.525 260.999 177.525 260.999C176.18 262.179 174.198 262.721 172.322 262.969C170.597 263.183 168.854 263.209 167.124 263.046C167.124 263.046 149.459 220.2 154.321 209.568C159.182 198.936 189.349 194.11 189.349 194.11L190.635 190.924L206.241 188.729L208.819 207.84C208.819 207.84 206.258 208.087 202.406 208.583C192.075 209.893 172.416 212.99 167.743 217.71Z" stroke="#263238" stroke-width="0.59" stroke-linecap="round" stroke-linejoin="round"/>
<path d="M159.011 179.19C156.421 178.747 174.859 162.581 174.859 162.581L183.75 168.564C183.75 168.564 168.622 179.219 166.245 179.508C163.867 179.797 159.011 179.19 159.011 179.19Z" fill="white"/>
<path opacity="0.2" d="M159.011 179.19C156.421 178.747 174.859 162.581 174.859 162.581L183.75 168.564C183.75 168.564 168.622 179.219 166.245 179.508C163.867 179.797 159.011 179.19 159.011 179.19Z" fill="black" fill-opacity="0.7"/>
<path d="M159.011 179.19C156.421 178.747 174.859 162.581 174.859 162.581L183.75 168.564C183.75 168.564 168.622 179.219 166.245 179.508C163.867 179.797 159.011 179.19 159.011 179.19Z" stroke="#263238" stroke-width="0.59" stroke-linecap="round" stroke-linejoin="round"/>
<path d="M162.25 172.393C162.25 172.393 166.114 173.354 167.3 174.163C168.486 174.971 168.144 177.891 168.144 177.891C168.144 177.891 162.993 176.44 162.25 172.393Z" fill="white" stroke="#263238" stroke-width="0.59" stroke-linecap="round" stroke-linejoin="round"/>
<path d="M159.784 164.988L166.97 178.77H167.82L160.994 164.31L159.784 164.988Z" fill="#263238"/>
<path d="M166.262 174.953C166.262 174.953 161.731 171.731 160.622 171.731C159.513 171.731 156.191 175.655 156.191 177.631C156.191 179.608 163.436 180.688 164.852 179.018C165.56 178.186 164.156 176.18 164.156 176.18C164.999 177.078 165.904 177.916 166.864 178.688C167.454 179.018 168.581 178.587 168.581 178.587C168.581 178.587 167.071 176.168 166.262 174.953Z" fill="white" stroke="#263238" stroke-width="0.59" stroke-linecap="round" stroke-linejoin="round"/>
<path d="M164.156 179.472C163.111 178.146 161.829 177.025 160.374 176.168" stroke="#263238" stroke-width="0.59" stroke-linecap="round" stroke-linejoin="round"/>
<path d="M164.156 176.168C164.156 176.168 162.586 174.799 161.53 174.498" stroke="#263238" stroke-width="0.59" stroke-linecap="round" stroke-linejoin="round"/>
<path d="M159.218 177.909C160.315 178.471 161.373 179.106 162.386 179.809" stroke="#263238" stroke-width="0.59" stroke-linecap="round" stroke-linejoin="round"/>
<path d="M180.635 155.513C178.316 157.129 167.902 167.838 167.902 167.838C167.902 167.838 172.782 173.39 177.059 174.192L188.653 168.564L180.635 155.513Z" fill="#5AC8FA" stroke="#263238" stroke-width="0.59" stroke-linecap="round" stroke-linejoin="round"/>
<path opacity="0.4" d="M180.635 155.513C178.316 157.129 167.902 167.838 167.902 167.838C167.902 167.838 172.782 173.39 177.059 174.192L188.653 168.564L180.635 155.513Z" fill="white" stroke="#263238" stroke-width="0.59" stroke-linecap="round" stroke-linejoin="round"/>
<path d="M175.035 256.703L179.95 269.63C179.95 269.63 180.764 272.952 165.943 271.902L157.778 271.205L175.035 256.703Z" fill="#5AC8FA"/>
<path opacity="0.3" d="M175.035 256.703L179.95 269.63C179.95 269.63 180.764 272.952 165.943 271.902L157.778 271.205L175.035 256.703Z" fill="black"/>
<path d="M175.035 256.703L179.95 269.63C179.95 269.63 180.764 272.952 165.943 271.902L157.778 271.205L175.035 256.703Z" stroke="#263238" stroke-width="0.59" stroke-linecap="round" stroke-linejoin="round"/>
<path d="M173.171 262.887C173.171 262.887 174.221 267.908 173.171 271.642C173.171 271.642 157.53 274.091 154.032 273.159C150.533 272.226 148.409 270.48 148.303 269.619C148.303 269.619 148.427 267.223 151.931 266.521C155.436 265.819 162.404 265.341 165.159 261.388C167.914 257.435 173.171 262.887 173.171 262.887Z" fill="#5AC8FA" stroke="#263238" stroke-width="0.59" stroke-linecap="round" stroke-linejoin="round"/>
<path d="M193.809 190.405C198.806 183.278 221.781 191.856 221.781 191.856C221.781 191.856 223.97 209.013 214.819 213.592C205.668 218.17 192.476 217.922 188.912 221.634L174.41 264.456C174.41 264.456 169.2 266.633 161.625 263.205C161.625 263.205 170.834 230.867 173.537 219.386C176.209 208.022 193.514 200.311 193.514 200.311C192.622 199.257 191.946 198.039 191.526 196.724" fill="#263238"/>
<path d="M193.809 190.405C198.806 183.278 221.781 191.856 221.781 191.856C221.781 191.856 223.97 209.013 214.819 213.592C205.668 218.17 192.476 217.922 188.912 221.634L174.41 264.456C174.41 264.456 169.2 266.633 161.625 263.205C161.625 263.205 170.834 230.867 173.537 219.386C176.209 208.022 193.514 200.311 193.514 200.311C192.622 199.257 191.946 198.039 191.526 196.724" stroke="#263238" stroke-width="0.59" stroke-linecap="round" stroke-linejoin="round"/>
<path d="M217.067 206.808C216.334 207.457 215.564 208.064 214.76 208.625" stroke="white" stroke-width="0.59" stroke-linecap="round" stroke-linejoin="round"/>
<path d="M218.949 192.275C220.826 196.346 220.973 201.515 218.359 205.285" stroke="white" stroke-width="0.59" stroke-linecap="round" stroke-linejoin="round"/>
<path d="M213.716 192.93C213.716 192.93 213.238 196.068 214.636 197.313C216.035 198.558 220.324 199.19 220.324 199.19" stroke="white" stroke-width="0.59" stroke-linecap="round" stroke-linejoin="round"/>
<path d="M194.883 193.072C194.883 193.072 195.077 196.199 193.809 196.052C192.54 195.904 192.476 197.303 192.476 197.303" stroke="white" stroke-width="0.59" stroke-linecap="round" stroke-linejoin="round"/>
<path d="M180.942 157.92C180.748 157.132 180.645 156.324 180.635 155.513C180.635 155.513 187.715 149.542 196.83 149.577C207.686 149.613 214.324 153.029 216.979 157.772C221.191 165.277 221.781 191.857 221.781 191.857C221.781 191.857 194.541 196.058 190.635 190.907C189.957 190.01 190.476 183.679 190.476 183.679C190.476 183.679 187.426 175.679 186.783 169.472C185.886 168.237 185.053 166.957 184.287 165.637C183.317 164.012 182.476 162.314 181.773 160.557" fill="#5AC8FA"/>
<path d="M180.942 157.92C180.748 157.132 180.645 156.324 180.635 155.513C180.635 155.513 187.715 149.542 196.83 149.577C207.686 149.613 214.324 153.029 216.979 157.772C221.191 165.277 221.781 191.857 221.781 191.857C221.781 191.857 194.541 196.058 190.635 190.907C189.957 190.01 190.476 183.679 190.476 183.679C190.476 183.679 187.426 175.679 186.783 169.472C185.886 168.237 185.053 166.957 184.287 165.637C183.317 164.012 182.476 162.314 181.773 160.557" stroke="#263238" stroke-width="0.59" stroke-linecap="round" stroke-linejoin="round"/>
<g opacity="0.6">
<path d="M180.942 157.92C180.748 157.132 180.645 156.324 180.635 155.513C180.635 155.513 187.715 149.542 196.83 149.577C207.686 149.613 214.324 153.029 216.979 157.772C221.191 165.277 221.781 191.857 221.781 191.857C221.781 191.857 194.541 196.058 190.635 190.907C189.957 190.01 190.476 183.679 190.476 183.679C190.476 183.679 187.426 175.679 186.783 169.472C185.886 168.237 185.053 166.957 184.287 165.637C183.317 164.012 182.476 162.314 181.773 160.557" fill="white"/>
<path d="M180.942 157.92C180.748 157.132 180.645 156.324 180.635 155.513C180.635 155.513 187.715 149.542 196.83 149.577C207.686 149.613 214.324 153.029 216.979 157.772C221.191 165.277 221.781 191.857 221.781 191.857C221.781 191.857 194.541 196.058 190.635 190.907C189.957 190.01 190.476 183.679 190.476 183.679C190.476 183.679 187.426 175.679 186.783 169.472C185.886 168.237 185.053 166.957 184.287 165.637C183.317 164.012 182.476 162.314 181.773 160.557" stroke="#263238" stroke-width="0.59" stroke-linecap="round" stroke-linejoin="round"/>
</g>
<path d="M191.373 164.31C191.373 164.31 195.532 180.446 194.913 183.998C194.765 185.223 194.969 186.466 195.503 187.579C194.959 188.151 194.609 188.879 194.504 189.661C194.398 190.443 194.541 191.238 194.913 191.933" stroke="#263238" stroke-width="0.59" stroke-linecap="round" stroke-linejoin="round"/>
<path d="M202.406 177.661C201.663 177.632 200.941 177.404 200.317 177L199.084 171.595C201.53 171.818 203.997 171.645 206.388 171.082L207.71 176.982C206.967 177.189 206.212 177.353 205.45 177.472" stroke="#263238" stroke-width="0.59" stroke-linecap="round" stroke-linejoin="round"/>
<path d="M188.417 166.41C188.417 166.41 184.877 151.33 193.809 149.577C202.742 147.825 204.577 151.996 204.052 154.822C203.35 158.593 195.945 167.838 195.945 167.838L191.373 164.298L188.417 166.41Z" fill="#5AC8FA" stroke="#263238" stroke-width="0.59" stroke-linecap="round" stroke-linejoin="round"/>
<path opacity="0.4" d="M188.417 166.41C188.417 166.41 184.877 151.33 193.809 149.577C202.742 147.825 204.577 151.996 204.052 154.822C203.35 158.593 195.945 167.838 195.945 167.838L191.373 164.298L188.417 166.41Z" fill="white" stroke="#263238" stroke-width="0.59" stroke-linecap="round" stroke-linejoin="round"/>
<path d="M176.699 212.99C176.699 212.99 182.469 206.329 195.497 201.296C195.497 201.296 192.122 200.264 191.367 198.859" stroke="white" stroke-width="0.59" stroke-linecap="round" stroke-linejoin="round"/>
<path d="M169.914 233.375L164.64 252.526" stroke="white" stroke-width="0.59" stroke-linecap="round" stroke-linejoin="round"/>
<path d="M210.671 178.18C210.671 178.18 213.031 182.162 222.749 181.797C220.94 179.86 218.653 178.436 216.117 177.667C212.146 176.605 210.671 178.18 210.671 178.18Z" fill="#5AC8FA" stroke="#263238" stroke-width="0.59" stroke-linecap="round" stroke-linejoin="round"/>
<path d="M172.97 179.779C172.97 179.779 175.224 176.287 177.289 175.584C179.354 174.882 185.419 174.823 186.357 174.8C187.295 174.776 203.963 179.012 211.786 181.62L211.102 168.563L221.616 169.395C221.616 169.395 221.191 185.325 219.557 189.544C217.922 193.762 215.58 192.736 211.586 191.013C195.874 184.246 186.67 179.532 185.815 179.803C184.959 180.074 172.97 179.779 172.97 179.779Z" fill="white" stroke="#263238" stroke-width="0.59" stroke-linecap="round" stroke-linejoin="round"/>
<path d="M208.477 160.976C208.202 162.059 208.114 163.18 208.217 164.292C208.683 168.375 210.671 178.181 210.671 178.181C210.671 178.181 220.471 179.579 222.749 181.797C222.749 181.797 224.365 168.817 221.073 162.227C217.781 155.637 214.377 154.911 214.377 154.911C212.223 154.38 210.247 156.386 209.155 158.964" fill="#5AC8FA"/>
<path d="M208.477 160.976C208.202 162.059 208.114 163.18 208.217 164.292C208.683 168.375 210.671 178.181 210.671 178.181C210.671 178.181 220.471 179.579 222.749 181.797C222.749 181.797 224.365 168.817 221.073 162.227C217.781 155.637 214.377 154.911 214.377 154.911C212.223 154.38 210.247 156.386 209.155 158.964" stroke="#263238" stroke-width="0.59" stroke-linecap="round" stroke-linejoin="round"/>
<g opacity="0.4">
<g opacity="0.4">
<path d="M208.477 160.976C208.202 162.059 208.114 163.18 208.217 164.292C208.683 168.375 210.671 178.181 210.671 178.181C210.671 178.181 220.471 179.579 222.749 181.797C222.749 181.797 224.365 168.817 221.073 162.227C217.781 155.637 214.377 154.911 214.377 154.911C212.223 154.38 210.247 156.386 209.155 158.964" fill="white"/>
<path d="M208.477 160.976C208.202 162.059 208.114 163.18 208.217 164.292C208.683 168.375 210.671 178.181 210.671 178.181C210.671 178.181 220.471 179.579 222.749 181.797C222.749 181.797 224.365 168.817 221.073 162.227C217.781 155.637 214.377 154.911 214.377 154.911C212.223 154.38 210.247 156.386 209.155 158.964" stroke="#263238" stroke-width="0.59" stroke-linecap="round" stroke-linejoin="round"/>
</g>
</g>
<path d="M179.685 166.026C181.152 167.227 182.863 168.093 184.7 168.563" stroke="#263238" stroke-width="0.59" stroke-linecap="round" stroke-linejoin="round"/>
<path d="M210.671 166.026C210.671 166.026 214.211 172.717 218.684 174.192" stroke="#263238" stroke-width="0.59" stroke-linecap="round" stroke-linejoin="round"/>
<path d="M187.732 217.562C187.732 217.562 188.387 218.058 188.652 219.846" stroke="white" stroke-width="0.59" stroke-linecap="round" stroke-linejoin="round"/>
<path d="M185.307 219.846C185.877 219.908 186.428 220.087 186.925 220.374C187.422 220.66 187.853 221.047 188.192 221.51" stroke="white" stroke-width="0.59" stroke-linecap="round" stroke-linejoin="round"/>
<path d="M165.79 212.99C165.79 212.99 167.678 213.946 167.271 216.654" stroke="white" stroke-width="0.59" stroke-linecap="round" stroke-linejoin="round"/>
<path d="M163.802 215.291C163.802 215.291 166.381 216.819 166.563 218.188" stroke="white" stroke-width="0.59" stroke-linecap="round" stroke-linejoin="round"/>
<path d="M193.686 198.783C193.686 198.783 199.426 199.586 200.712 198.783" stroke="white" stroke-width="0.59" stroke-linecap="round" stroke-linejoin="round"/>
<path d="M191.373 163.661C190.877 162.256 190.676 160.763 190.783 159.277C190.806 158.773 190.859 158.271 190.942 157.773L189.945 156.191L188.665 154.156L190.145 148.256C190.145 148.256 199.585 150.073 200.293 152.704C201.001 155.336 191.373 163.661 191.373 163.661Z" fill="white"/>
<path opacity="0.2" d="M190.77 159.301C190.794 158.797 190.847 158.294 190.93 157.796L189.933 156.215C191.73 155.937 193.366 155.019 194.541 153.631C194.59 154.853 194.252 156.059 193.575 157.077C192.898 158.096 191.916 158.874 190.77 159.301Z" fill="black" fill-opacity="0.7"/>
<path d="M191.373 163.661C190.877 162.256 190.676 160.763 190.783 159.277C190.806 158.773 190.859 158.271 190.942 157.773L189.945 156.191L188.665 154.156L190.145 148.256C190.145 148.256 199.585 150.073 200.293 152.704C201.001 155.336 191.373 163.661 191.373 163.661Z" stroke="#263238" stroke-width="0.59" stroke-linecap="round" stroke-linejoin="round"/>
<path d="M197.296 148.752C200.246 141.082 198.287 128.025 184.127 130.526C175.82 132.001 174.817 142.043 177.59 146.504C180.363 150.964 177.419 151.106 181.59 154.41C183.284 155.749 184.647 158.02 186.664 158.168C189.066 158.333 192.139 156.062 194.435 153.607" fill="white"/>
<path d="M197.296 148.752C200.246 141.082 198.287 128.025 184.127 130.526C175.82 132.001 174.817 142.043 177.59 146.504C180.363 150.964 177.419 151.106 181.59 154.41C183.284 155.749 184.647 158.02 186.664 158.168C189.066 158.333 192.139 156.062 194.435 153.607" stroke="#263238" stroke-width="0.59" stroke-linecap="round" stroke-linejoin="round"/>
<path d="M183.343 146.503C183.343 146.503 185.431 144.604 187.915 145.388" stroke="#263238" stroke-width="0.59" stroke-linecap="round" stroke-linejoin="round"/>
<path d="M179.431 146.503C179.151 146.01 178.761 145.589 178.291 145.271C177.822 144.954 177.285 144.75 176.723 144.674" stroke="#263238" stroke-width="0.59" stroke-linecap="round" stroke-linejoin="round"/>
<path d="M180.812 149.271C180.812 149.271 180.511 150.799 180.116 152.344C179.72 153.89 182.594 153.047 182.476 152.811" fill="white"/>
<path d="M180.812 149.271C180.812 149.271 180.511 150.799 180.116 152.344C179.72 153.89 182.594 153.047 182.476 152.811" stroke="#263238" stroke-width="0.59" stroke-linecap="round" stroke-linejoin="round"/>
<path d="M183.956 154.74C185.174 154.391 186.258 153.681 187.065 152.704" stroke="#263238" stroke-width="0.59" stroke-linecap="round" stroke-linejoin="round"/>
<path d="M186.251 148.444C186.293 148.519 186.32 148.601 186.33 148.685C186.341 148.77 186.334 148.856 186.311 148.938C186.288 149.021 186.249 149.097 186.196 149.165C186.143 149.232 186.078 149.288 186.004 149.329C185.852 149.412 185.675 149.432 185.509 149.384C185.343 149.337 185.203 149.226 185.119 149.076C185.064 148.985 185.036 148.881 185.036 148.775C184.994 148.7 184.967 148.619 184.957 148.534C184.947 148.449 184.953 148.363 184.976 148.281C184.999 148.199 185.038 148.122 185.091 148.055C185.144 147.988 185.209 147.932 185.284 147.89C185.435 147.807 185.613 147.787 185.778 147.835C185.944 147.882 186.084 147.993 186.169 148.144C186.223 148.235 186.251 148.339 186.251 148.444Z" fill="#263238"/>
<path d="M179.95 148.315C180.068 148.74 179.985 149.141 179.761 149.2C179.537 149.259 179.26 148.964 179.171 148.533C179.083 148.102 179.142 147.707 179.366 147.648C179.59 147.589 179.82 147.884 179.95 148.315Z" fill="#263238"/>
<path d="M188.564 138.603C188.564 138.603 186.369 144.344 180.941 144.214C180.941 144.214 182.823 142.78 183.343 141.411C183.343 141.411 179.165 145.541 174.994 143.441C170.823 141.341 172.87 131.57 179.272 127.712C185.673 123.853 192.222 124.886 194.44 128.573C194.44 128.573 198.924 128.16 200.901 134.75C202.671 140.65 199.839 149.595 197.072 149.695C192.783 149.854 191.921 145.199 191.921 145.199C190.15 143.398 188.978 141.095 188.564 138.603Z" fill="#263238" stroke="#263238" stroke-width="0.59" stroke-linecap="round" stroke-linejoin="round"/>
<path d="M193.267 148.78C193.267 148.78 193.131 143.364 196.217 144.019C199.302 144.674 197.066 150.934 194.747 150.869" fill="white"/>
<path d="M193.267 148.78C193.267 148.78 193.131 143.364 196.217 144.019C199.302 144.674 197.066 150.934 194.747 150.869" stroke="#263238" stroke-width="0.59" stroke-linecap="round" stroke-linejoin="round"/>
<path d="M183.738 179.189H136.166C135.635 179.189 135.205 179.62 135.205 180.151V181.809C135.205 182.34 135.635 182.771 136.166 182.771H183.738C184.269 182.771 184.7 182.34 184.7 181.809V180.151C184.7 179.62 184.269 179.189 183.738 179.189Z" fill="#5AC8FA" stroke="#263238" stroke-width="0.59" stroke-linecap="round" stroke-linejoin="round"/>
<path d="M65.9555 251.257H45.8896L47.99 269.6H63.8552L65.9555 251.257Z" fill="#263238" stroke="#263238" stroke-width="0.59" stroke-linecap="round" stroke-linejoin="round"/>
<path d="M68.3334 238.489C68.3334 238.489 59.5719 239.18 59.2061 245.646C59.2061 245.646 68.0797 249.729 68.3334 238.489Z" fill="#5AC8FA" stroke="#263238" stroke-width="0.59" stroke-linecap="round" stroke-linejoin="round"/>
<path d="M50.9993 240.094C50.9993 240.094 46.1023 233.474 38.1904 236.867C38.1904 236.867 43.0225 244.85 50.9993 240.094Z" fill="#5AC8FA" stroke="#263238" stroke-width="0.59" stroke-linecap="round" stroke-linejoin="round"/>
<path d="M38.8631 219.197C38.8631 219.197 37.453 231.929 49.0465 228.424C49.0465 228.424 45.3649 219.061 38.8631 219.197Z" fill="#5AC8FA" stroke="#263238" stroke-width="0.59" stroke-linecap="round" stroke-linejoin="round"/>
<path d="M53.0997 212.104C53.0997 212.104 43.9311 217.049 50.6748 224.553C50.6689 224.553 57.094 219.19 53.0997 212.104Z" fill="#5AC8FA" stroke="#263238" stroke-width="0.59" stroke-linecap="round" stroke-linejoin="round"/>
<path d="M64.3748 223.486C64.3748 223.486 54.4038 222.477 54.4038 231.704C54.4038 231.704 64.3748 232.1 64.3748 223.486Z" fill="#5AC8FA" stroke="#263238" stroke-width="0.59" stroke-linecap="round" stroke-linejoin="round"/>
<path d="M54.976 258.815C54.976 258.815 59.519 249.281 55.1589 239.569C50.7988 229.858 49.3179 221.674 51.6189 215.91" stroke="#263238" stroke-width="0.59" stroke-linecap="round" stroke-linejoin="round"/>
<path d="M61.1 225.97C61.1 225.97 55.1233 228.33 53.0996 234.495" stroke="#263238" stroke-width="0.59" stroke-linecap="round" stroke-linejoin="round"/>
<path d="M42.0137 224.288C42.0137 224.288 45.4652 229.008 51.3121 228.483" stroke="#263238" stroke-width="0.59" stroke-linecap="round" stroke-linejoin="round"/>
<path d="M42.0137 238.224C42.0137 238.224 51.5717 240.973 55.3713 240.076" stroke="#263238" stroke-width="0.59" stroke-linecap="round" stroke-linejoin="round"/>
<path d="M65.4897 241.398C65.4897 241.398 61.2122 246.118 56.917 246.018" stroke="#263238" stroke-width="0.59" stroke-linecap="round" stroke-linejoin="round"/>
<path d="M66.817 250.85H45.0283V253.44H66.817V250.85Z" fill="#263238" stroke="#263238" stroke-width="0.59" stroke-linecap="round" stroke-linejoin="round"/>
<path d="M224.932 234.23C219.838 237.558 215.564 241.996 212.429 247.21C207.232 255.883 203.113 268.085 209.509 269.63L215.592 269.4L227.297 265.382L226.07 263.022C226.07 263.022 215.822 268.45 214.07 268.45C212.317 268.45 210.034 268.887 209.072 268.185C208.111 267.483 212.441 251.712 221.71 246.455C230.979 241.198 224.932 234.23 224.932 234.23Z" fill="#5AC8FA"/>
<path opacity="0.5" d="M224.932 234.23C219.838 237.558 215.564 241.996 212.429 247.21C207.232 255.883 203.113 268.085 209.509 269.63L215.592 269.4L227.297 265.382L226.07 263.022C226.07 263.022 215.822 268.45 214.07 268.45C212.317 268.45 210.034 268.887 209.072 268.185C208.111 267.483 212.441 251.712 221.71 246.455C230.979 241.198 224.932 234.23 224.932 234.23Z" fill="black" fill-opacity="0.7"/>
<path d="M224.932 234.23C219.838 237.558 215.564 241.996 212.429 247.21C207.232 255.883 203.113 268.085 209.509 269.63L215.592 269.4L227.297 265.382L226.07 263.022C226.07 263.022 215.822 268.45 214.07 268.45C212.317 268.45 210.034 268.887 209.072 268.185C208.111 267.483 212.441 251.712 221.71 246.455C230.979 241.198 224.932 234.23 224.932 234.23Z" stroke="#263238" stroke-width="0.59" stroke-linecap="round" stroke-linejoin="round"/>
<path d="M231.592 228.543C231.592 228.543 231.592 226 235.445 225.652C239.298 225.304 239.846 229.015 239.846 229.015H238.519C238.519 229.015 238.548 226.791 235.716 226.62C232.884 226.448 232.991 229.015 232.991 229.015L231.592 228.543Z" fill="#5AC8FA" stroke="#263238" stroke-width="0.59" stroke-linecap="round" stroke-linejoin="round"/>
<path d="M225.893 269.631C217.745 269.631 219.291 233.092 220.229 231.281C221.167 229.47 244.809 228.567 247.139 229.334C249.47 230.101 258.815 266.504 253.659 269.413L225.893 269.631Z" fill="#5AC8FA"/>
<path opacity="0.2" d="M225.893 269.631C217.745 269.631 219.291 233.092 220.229 231.281C221.167 229.47 244.809 228.567 247.139 229.334C249.47 230.101 258.815 266.504 253.659 269.413L225.893 269.631Z" fill="black" fill-opacity="0.7"/>
<path d="M225.893 269.631C217.745 269.631 219.291 233.092 220.229 231.281C221.167 229.47 244.809 228.567 247.139 229.334C249.47 230.101 258.815 266.504 253.659 269.413L225.893 269.631Z" stroke="#263238" stroke-width="0.59" stroke-linecap="round" stroke-linejoin="round"/>
<path d="M220.229 231.24C223.179 231.871 224.879 243.831 228.849 246.875C232.82 249.919 251.541 249.264 253.659 246.875C255.777 244.485 251.635 231.069 248.626 229.016C245.617 226.962 243.476 228.957 235.009 228.019C222.46 226.62 220.229 231.24 220.229 231.24Z" fill="#5AC8FA" stroke="#263238" stroke-width="0.59" stroke-linecap="round" stroke-linejoin="round"/>
<path d="M241.717 238.113L245.186 240.945C245.234 240.985 245.273 241.034 245.301 241.09C245.329 241.145 245.346 241.205 245.351 241.267C245.356 241.329 245.349 241.392 245.33 241.451C245.31 241.51 245.28 241.564 245.239 241.612L242.537 244.526C242.451 244.612 242.334 244.66 242.213 244.66C242.091 244.66 241.974 244.612 241.888 244.526L238.437 241.311C238.352 241.224 238.305 241.107 238.305 240.986C238.305 240.865 238.352 240.749 238.437 240.662L241.109 238.178C241.185 238.095 241.289 238.042 241.401 238.03C241.513 238.018 241.625 238.048 241.717 238.113Z" fill="#5AC8FA"/>
<path opacity="0.2" d="M241.717 238.113L245.186 240.945C245.234 240.985 245.273 241.034 245.301 241.09C245.329 241.145 245.346 241.205 245.351 241.267C245.356 241.329 245.349 241.392 245.33 241.451C245.31 241.51 245.28 241.564 245.239 241.612L242.537 244.526C242.451 244.612 242.334 244.66 242.213 244.66C242.091 244.66 241.974 244.612 241.888 244.526L238.437 241.311C238.352 241.224 238.305 241.107 238.305 240.986C238.305 240.865 238.352 240.749 238.437 240.662L241.109 238.178C241.185 238.095 241.289 238.042 241.401 238.03C241.513 238.018 241.625 238.048 241.717 238.113Z" fill="black" fill-opacity="0.7"/>
<path d="M241.717 238.113L245.186 240.945C245.234 240.985 245.273 241.034 245.301 241.09C245.329 241.145 245.346 241.205 245.351 241.267C245.356 241.329 245.349 241.392 245.33 241.451C245.31 241.51 245.28 241.564 245.239 241.612V241.612L242.537 244.526C242.451 244.612 242.334 244.66 242.213 244.66C242.091 244.66 241.974 244.612 241.888 244.526V244.526L238.437 241.311C238.352 241.224 238.305 241.107 238.305 240.986C238.305 240.865 238.352 240.749 238.437 240.662V240.662L241.109 238.178C241.185 238.095 241.289 238.042 241.401 238.03C241.513 238.018 241.625 238.048 241.717 238.113V238.113Z" stroke="#263238" stroke-width="0.59" stroke-linecap="round" stroke-linejoin="round"/>
<path d="M230.277 252.986C230.277 252.986 245.959 254.278 253.658 252.284C254.689 253.095 255.455 254.194 255.859 255.441C256.561 257.541 258.024 264.727 253.658 266.568C249.292 268.409 233.598 268.055 231.504 265.978C229.409 263.901 230.277 252.986 230.277 252.986Z" fill="#5AC8FA"/>
<path opacity="0.4" d="M230.277 252.986C230.277 252.986 245.959 254.278 253.658 252.284C254.689 253.095 255.455 254.194 255.859 255.441C256.561 257.541 258.024 264.727 253.658 266.568C249.292 268.409 233.598 268.055 231.504 265.978C229.409 263.901 230.277 252.986 230.277 252.986Z" fill="black" fill-opacity="0.7"/>
<path d="M230.277 252.986C230.277 252.986 245.959 254.278 253.658 252.284C254.689 253.095 255.455 254.194 255.859 255.441C256.561 257.541 258.024 264.727 253.658 266.568C249.292 268.409 233.598 268.055 231.504 265.978C229.409 263.901 230.277 252.986 230.277 252.986Z" stroke="#263238" stroke-width="0.59" stroke-linecap="round" stroke-linejoin="round"/>
<path d="M230.277 252.986C230.277 252.986 232.118 257.948 233.079 258.709C234.041 259.47 254.414 259.47 256.679 257.63C258.945 255.789 255.842 252.461 253.664 252.284C253.659 252.284 239.386 253.948 230.277 252.986Z" fill="#5AC8FA" stroke="#263238" stroke-width="0.59" stroke-linecap="round" stroke-linejoin="round"/>
<path d="M223.704 251.931C223.704 251.931 224.229 262.356 225.28 264.722C224.5 265.129 223.634 265.341 222.754 265.341C221.875 265.341 221.009 265.129 220.229 264.722C217.574 263.318 218.011 254.338 218.536 254.361C219.061 254.385 223.704 251.931 223.704 251.931Z" fill="#5AC8FA"/>
<path opacity="0.4" d="M223.704 251.931C223.704 251.931 224.229 262.356 225.28 264.722C224.5 265.129 223.634 265.341 222.754 265.341C221.875 265.341 221.009 265.129 220.229 264.722C217.574 263.318 218.011 254.338 218.536 254.361C219.061 254.385 223.704 251.931 223.704 251.931Z" fill="black" fill-opacity="0.7"/>
<path d="M223.704 251.931C223.704 251.931 224.229 262.356 225.28 264.722C224.5 265.129 223.634 265.341 222.754 265.341C221.875 265.341 221.009 265.129 220.229 264.722C217.574 263.318 218.011 254.338 218.536 254.361C219.061 254.385 223.704 251.931 223.704 251.931Z" stroke="#263238" stroke-width="0.59" stroke-linecap="round" stroke-linejoin="round"/>
<path d="M223.704 251.931L219.757 252.721C219.757 252.721 215.993 255.612 217.657 256.574C219.321 257.536 223.61 255.176 223.704 251.931Z" fill="#5AC8FA" stroke="#263238" stroke-width="0.59" stroke-linecap="round" stroke-linejoin="round"/>
</svg>
