<svg width="18" height="18" viewBox="0 0 18 18" fill="none" xmlns="http://www.w3.org/2000/svg">
<path d="M2.25 4.3125C2.25 3.76549 2.4673 3.24089 2.85409 2.85409C3.24089 2.4673 3.76549 2.25 4.3125 2.25H13.6875C14.2345 2.25 14.7591 2.4673 15.1459 2.85409C15.5327 3.24089 15.75 3.76549 15.75 4.3125V9.0165C15.3994 8.79171 15.0213 8.61299 14.625 8.48475V4.3125C14.625 3.795 14.205 3.375 13.6875 3.375H4.3125C3.795 3.375 3.375 3.795 3.375 4.3125V13.6875C3.375 14.205 3.795 14.625 4.3125 14.625H8.48475C8.6145 15.0255 8.79375 15.4028 9.0165 15.75H4.3125C3.76549 15.75 3.24089 15.5327 2.85409 15.1459C2.4673 14.7591 2.25 14.2345 2.25 13.6875V4.3125Z" fill="#F4F7FB"/>
<path d="M5.0625 10.125H9.282C9.015 10.4663 8.793 10.845 8.6235 11.25H5.0625C4.91332 11.25 4.77024 11.1907 4.66475 11.0852C4.55926 10.9798 4.5 10.8367 4.5 10.6875C4.5 10.5383 4.55926 10.3952 4.66475 10.2898C4.77024 10.1843 4.91332 10.125 5.0625 10.125Z" fill="#F4F7FB"/>
<path d="M7.6875 13.875H5.0625C4.91332 13.875 4.77024 13.8157 4.66475 13.7102C4.55926 13.6048 4.5 13.4617 4.5 13.3125C4.5 13.1633 4.55926 13.0202 4.66475 12.9148C4.77024 12.8093 4.91332 12.75 5.0625 12.75H7.6875C7.83668 12.75 7.97976 12.8093 8.08525 12.9148C8.19074 13.0202 8.25 13.1633 8.25 13.3125C8.25 13.4617 8.19074 13.6048 8.08525 13.7102C7.97976 13.8157 7.83668 13.875 7.6875 13.875Z" fill="#F4F7FB"/>
<path d="M7.50005 3.74805C7.61179 3.74813 7.72097 3.78149 7.81367 3.84387C7.90637 3.90625 7.97839 3.99482 8.02055 4.0983L9.70655 8.2248C9.76305 8.36294 9.76234 8.51787 9.70461 8.6555C9.64687 8.79313 9.53682 8.90218 9.39868 8.95867C9.26053 9.01516 9.10561 9.01446 8.96798 8.95672C8.83035 8.89899 8.7213 8.78894 8.6648 8.6508L8.34755 7.8738H6.65105L6.33305 8.6508C6.27465 8.78604 6.16553 8.89297 6.02913 8.94861C5.89273 9.00426 5.73995 9.00417 5.60361 8.94838C5.46727 8.89259 5.35826 8.78554 5.30001 8.65024C5.24175 8.51494 5.23889 8.36218 5.29205 8.2248L6.97955 4.0983C7.02171 3.99482 7.09374 3.90625 7.18644 3.84387C7.27914 3.78149 7.38832 3.74813 7.50005 3.74805ZM7.1108 6.74805H7.88855L7.50005 5.7978L7.11005 6.7488L7.1108 6.74805Z" fill="#F4F7FB"/>
<path d="M11.8125 3.74805C11.9617 3.74805 12.1048 3.80731 12.2102 3.9128C12.3157 4.01829 12.375 4.16136 12.375 4.31055V5.24805H13.3125C13.4617 5.24805 13.6048 5.30731 13.7102 5.4128C13.8157 5.51829 13.875 5.66136 13.875 5.81055C13.875 5.95973 13.8157 6.10281 13.7102 6.20829C13.6048 6.31378 13.4617 6.37305 13.3125 6.37305H12.375V7.31055C12.375 7.45973 12.3157 7.60281 12.2102 7.70829C12.1048 7.81378 11.9617 7.87305 11.8125 7.87305C11.6633 7.87305 11.5202 7.81378 11.4148 7.70829C11.3093 7.60281 11.25 7.45973 11.25 7.31055V6.37305H10.3125C10.1633 6.37305 10.0202 6.31378 9.91475 6.20829C9.80926 6.10281 9.75 5.95973 9.75 5.81055C9.75 5.66136 9.80926 5.51829 9.91475 5.4128C10.0202 5.30731 10.1633 5.24805 10.3125 5.24805H11.25V4.31055C11.25 4.16136 11.3093 4.01829 11.4148 3.9128C11.5202 3.80731 11.6633 3.74805 11.8125 3.74805Z" fill="#F4F7FB"/>
<path d="M17.25 13.125C17.25 12.031 16.8154 10.9818 16.0418 10.2082C15.2682 9.4346 14.219 9 13.125 9C12.031 9 10.9818 9.4346 10.2082 10.2082C9.4346 10.9818 9 12.031 9 13.125C9 14.219 9.4346 15.2682 10.2082 16.0418C10.9818 16.8154 12.031 17.25 13.125 17.25C14.219 17.25 15.2682 16.8154 16.0418 16.0418C16.8154 15.2682 17.25 14.219 17.25 13.125ZM13.5 13.5L13.5007 15.3773C13.5007 15.4767 13.4612 15.5721 13.3909 15.6424C13.3206 15.7127 13.2252 15.7523 13.1257 15.7523C13.0263 15.7523 12.9309 15.7127 12.8606 15.6424C12.7903 15.5721 12.7507 15.4767 12.7507 15.3773V13.5H10.872C10.7725 13.5 10.6772 13.4605 10.6068 13.3902C10.5365 13.3198 10.497 13.2245 10.497 13.125C10.497 13.0255 10.5365 12.9302 10.6068 12.8598C10.6772 12.7895 10.7725 12.75 10.872 12.75H12.75V10.875C12.75 10.7755 12.7895 10.6802 12.8598 10.6098C12.9302 10.5395 13.0255 10.5 13.125 10.5C13.2245 10.5 13.3198 10.5395 13.3902 10.6098C13.4605 10.6802 13.5 10.7755 13.5 10.875V12.75H15.3773C15.4767 12.75 15.5721 12.7895 15.6424 12.8598C15.7127 12.9302 15.7523 13.0255 15.7523 13.125C15.7523 13.2245 15.7127 13.3198 15.6424 13.3902C15.5721 13.4605 15.4767 13.5 15.3773 13.5H13.5007H13.5Z" fill="#F4F7FB"/>
</svg>
