<svg width="20" height="20" viewBox="0 0 20 20" fill="none" xmlns="http://www.w3.org/2000/svg">
<g >
<path d="M3.75 3.75C3.08696 3.75 2.45107 4.01339 1.98223 4.48223C1.51339 4.95107 1.25 5.58696 1.25 6.25V7.5H18.75V6.25C18.75 5.58696 18.4866 4.95107 18.0178 4.48223C17.5489 4.01339 16.913 3.75 16.25 3.75H3.75Z" fill="#808891" class="pro-svg"/>
<path d="M1.25 13.75V8.75H18.75V13.75C18.75 14.413 18.4866 15.0489 18.0178 15.5178C17.5489 15.9866 16.913 16.25 16.25 16.25H3.75C3.08696 16.25 2.45107 15.9866 1.98223 15.5178C1.51339 15.0489 1.25 14.413 1.25 13.75ZM13.125 12.5C12.9592 12.5 12.8003 12.5658 12.6831 12.6831C12.5658 12.8003 12.5 12.9592 12.5 13.125C12.5 13.2908 12.5658 13.4497 12.6831 13.5669C12.8003 13.6842 12.9592 13.75 13.125 13.75H15.625C15.7908 13.75 15.9497 13.6842 16.0669 13.5669C16.1842 13.4497 16.25 13.2908 16.25 13.125C16.25 12.9592 16.1842 12.8003 16.0669 12.6831C15.9497 12.5658 15.7908 12.5 15.625 12.5H13.125Z" fill="#808891" class="pro-svg"/>
</g>
</svg>
