<svg width="11" height="11" viewBox="0 0 11 11" fill="none" xmlns="http://www.w3.org/2000/svg">
<path d="M8.47933 9.16699C8.47933 9.22777 8.45518 9.28606 8.41221 9.32904C8.36923 9.37201 8.31094 9.39616 8.25016 9.39616H5.623C5.49177 9.64762 5.32541 9.87911 5.12891 10.0837H8.25016C8.49328 10.0837 8.72643 9.98708 8.89834 9.81517C9.07025 9.64326 9.16683 9.41011 9.16683 9.16699V4.50483C9.16678 4.26173 9.07017 4.02861 8.89825 3.85674L6.22662 1.18558C6.21954 1.17899 6.21204 1.17286 6.20416 1.16724C6.19849 1.16287 6.19299 1.15828 6.18766 1.15349C6.15613 1.12373 6.12259 1.09617 6.08729 1.07099C6.07555 1.06342 6.0633 1.05668 6.05062 1.05083L6.02862 1.03983L6.0057 1.02653C5.98095 1.01233 5.95575 0.997659 5.92962 0.986659C5.83835 0.950205 5.74175 0.928842 5.64362 0.923409C5.63445 0.92295 5.62529 0.921576 5.61658 0.920201C5.60414 0.918279 5.59158 0.917207 5.579 0.916992H2.75016C2.50705 0.916992 2.27389 1.01357 2.10198 1.18548C1.93007 1.35739 1.8335 1.59054 1.8335 1.83366V5.27024C2.05401 5.17823 2.28486 5.11328 2.521 5.07683V1.83366C2.521 1.77288 2.54514 1.71459 2.58812 1.67161C2.63109 1.62864 2.68938 1.60449 2.75016 1.60449H5.50016V3.66699C5.50016 3.91011 5.59674 4.14327 5.76865 4.31517C5.94056 4.48708 6.17371 4.58366 6.41683 4.58366H8.47933V9.16699ZM6.18766 2.11828L7.96508 3.89616H6.41683C6.35605 3.89616 6.29776 3.87201 6.25478 3.82904C6.21181 3.78606 6.18766 3.72777 6.18766 3.66699V2.11828ZM0.458496 8.02116C0.458496 8.3522 0.523699 8.68 0.650383 8.98584C0.777067 9.29168 0.96275 9.56958 1.19683 9.80366C1.43091 10.0377 1.70881 10.2234 2.01465 10.3501C2.32049 10.4768 2.64829 10.542 2.97933 10.542C3.31037 10.542 3.63817 10.4768 3.94401 10.3501C4.24985 10.2234 4.52775 10.0377 4.76183 9.80366C4.99591 9.56958 5.18159 9.29168 5.30828 8.98584C5.43496 8.68 5.50016 8.3522 5.50016 8.02116C5.50016 7.35259 5.23458 6.71141 4.76183 6.23866C4.28908 5.76591 3.6479 5.50033 2.97933 5.50033C2.31076 5.50033 1.66958 5.76591 1.19683 6.23866C0.724083 6.71141 0.458496 7.35259 0.458496 8.02116ZM2.63558 9.51074C2.63558 9.41957 2.6718 9.33214 2.73626 9.26767C2.80073 9.20321 2.88816 9.16699 2.97933 9.16699C3.0705 9.16699 3.15793 9.20321 3.2224 9.26767C3.28686 9.33214 3.32308 9.41957 3.32308 9.51074C3.32308 9.60191 3.28686 9.68935 3.2224 9.75381C3.15793 9.81828 3.0705 9.85449 2.97933 9.85449C2.88816 9.85449 2.80073 9.81828 2.73626 9.75381C2.6718 9.68935 2.63558 9.60191 2.63558 9.51074ZM2.06266 7.33366C2.06266 7.09054 2.15924 6.85739 2.33115 6.68548C2.50306 6.51357 2.73621 6.41699 2.97933 6.41699C3.22244 6.41699 3.4556 6.51357 3.62751 6.68548C3.79942 6.85739 3.896 7.09054 3.896 7.33366C3.896 7.66824 3.79883 7.85616 3.55041 8.11649L3.42941 8.24024L3.37625 8.29708C3.24654 8.44328 3.2085 8.53908 3.2085 8.70866C3.2085 8.76944 3.18435 8.82773 3.14137 8.8707C3.0984 8.91368 3.04011 8.93783 2.97933 8.93783C2.91855 8.93783 2.86026 8.91368 2.81728 8.8707C2.77431 8.82773 2.75016 8.76944 2.75016 8.70866C2.75016 8.37408 2.84733 8.18616 3.09575 7.92583L3.21675 7.80208L3.26991 7.74524C3.39962 7.59903 3.43766 7.5037 3.43766 7.33366C3.43766 7.2121 3.38937 7.09552 3.30342 7.00957C3.21747 6.92361 3.10089 6.87533 2.97933 6.87533C2.85777 6.87533 2.74119 6.92361 2.65524 7.00957C2.56928 7.09552 2.521 7.2121 2.521 7.33366C2.521 7.39444 2.49685 7.45273 2.45387 7.4957C2.4109 7.53868 2.35261 7.56283 2.29183 7.56283C2.23105 7.56283 2.17276 7.53868 2.12978 7.4957C2.08681 7.45273 2.06266 7.39444 2.06266 7.33366Z" fill="#AFB3B6"/>
</svg>
