<svg width="16" height="16" viewBox="0 0 16 16" fill="none" xmlns="http://www.w3.org/2000/svg">
<path d="M4 3.5C3.46957 3.5 2.96086 3.71071 2.58579 4.08579C2.21071 4.46086 2 4.96957 2 5.5V10.5C2 11.0304 2.21071 11.5391 2.58579 11.9142C2.96086 12.2893 3.46957 12.5 4 12.5H9C9.53043 12.5 10.0391 12.2893 10.4142 11.9142C10.7893 11.5391 11 11.0304 11 10.5V10L12.8 11.35C12.9114 11.4336 13.0439 11.4845 13.1826 11.497C13.3214 11.5095 13.4608 11.4831 13.5854 11.4208C13.71 11.3585 13.8148 11.2628 13.888 11.1443C13.9612 11.0258 14 10.8893 14 10.75V5.25C14 5.11072 13.9612 4.97418 13.888 4.8557C13.8148 4.73722 13.71 4.64147 13.5854 4.57918C13.4608 4.51689 13.3214 4.49052 13.1826 4.50303C13.0439 4.51554 12.9114 4.56643 12.8 4.65L11 6V5.5C11 4.96957 10.7893 4.46086 10.4142 4.08579C10.0391 3.71071 9.53043 3.5 9 3.5H4ZM11 7.25L13 5.75V10.25L11 8.75V7.25ZM10 5.5V10.5C10 10.7652 9.89464 11.0196 9.70711 11.2071C9.51957 11.3946 9.26522 11.5 9 11.5H4C3.73478 11.5 3.48043 11.3946 3.29289 11.2071C3.10536 11.0196 3 10.7652 3 10.5V5.5C3 5.23478 3.10536 4.98043 3.29289 4.79289C3.48043 4.60536 3.73478 4.5 4 4.5H9C9.26522 4.5 9.51957 4.60536 9.70711 4.79289C9.89464 4.98043 10 5.23478 10 5.5Z" fill="#F4F7FB"/>
</svg>
