<svg width="43" height="43" viewBox="0 0 43 43" fill="none" xmlns="http://www.w3.org/2000/svg">
<circle cx="21.6061" cy="21.6061" r="18.6818" fill="#5AC8FA" stroke="#F3F7FB" stroke-width="4.15152"/>
<g clip-path="url(#clip0_3138:2300)">
<path d="M25.7576 16.624H28.1987C28.6885 16.624 29.0788 17.0142 29.0788 17.5041V27.31C29.0788 27.7999 28.6885 28.2482 28.1987 28.2482H15.0135C14.5236 28.2482 14.1333 27.7999 14.1333 27.31V17.5041C14.1333 17.0142 14.5236 16.624 15.0135 16.624H17.4545L19.9455 14.9634H23.2667L25.7576 16.624ZM21.6061 25.7573C23.441 25.7573 24.9273 24.2711 24.9273 22.4361C24.9273 20.6011 23.441 19.1149 21.6061 19.1149C19.7711 19.1149 18.2848 20.6011 18.2848 22.4361C18.2848 24.2711 19.7711 25.7573 21.6061 25.7573Z" fill="#F4F7FB"/>
</g>
<defs>
<clipPath id="clip0_3138:2300">
<rect width="16.6061" height="16.6061" fill="white" transform="translate(13.303 13.3032)"/>
</clipPath>
</defs>
</svg>
