<svg width="28" height="28" viewBox="0 0 28 28" fill="none" xmlns="http://www.w3.org/2000/svg">
<path d="M13.947 25.57C20.3659 25.57 25.5695 20.3664 25.5695 13.9475C25.5695 7.52853 20.3659 2.32495 13.947 2.32495C7.52802 2.32495 2.32444 7.52853 2.32444 13.9475C2.32444 20.3664 7.52802 25.57 13.947 25.57Z" stroke="#AFB3B6" stroke-width="2.3245" stroke-linecap="round" stroke-linejoin="round"/>
<path d="M10.5649 10.4603C10.8382 9.68355 11.3775 9.02855 12.0874 8.61133C12.7973 8.19411 13.632 8.0416 14.4435 8.18081C15.2551 8.32002 15.9913 8.74196 16.5215 9.3719C17.0518 10.0018 17.3421 10.7991 17.3408 11.6226C17.3408 13.9471 13.8541 15.1093 13.8541 15.1093" stroke="#AFB3B6" stroke-width="2.3245" stroke-linecap="round" stroke-linejoin="round"/>
<path d="M13.947 19.7588H13.958" stroke="#AFB3B6" stroke-width="2.3245" stroke-linecap="round" stroke-linejoin="round"/>
</svg>
