<svg width="198" height="164" viewBox="0 0 198 164" fill="none" xmlns="http://www.w3.org/2000/svg">
<g style="mix-blend-mode:soft-light" opacity="0.2">
<path d="M100.304 20.871C98.49 27.2675 95.8272 33.8864 94.3906 35.7176C92.1818 38.8463 92.1586 39.2802 95.2903 44.5685C97.1325 47.6792 98.8136 50.045 99.1247 49.8608C100.784 48.8783 105.643 41.2386 107.299 37.1766L109.186 32.5579L112.87 38.7794L116.616 45.1045L126.985 38.964L137.354 32.8234L129.986 20.3804C122.064 7.00427 119.105 4.13512 114.121 4.70579C106.614 5.50996 103.971 8.61555 100.304 20.871Z" fill="#F4F7FB"/>
<path d="M52.562 106.985C56.3957 141.129 59.6204 169.751 59.8006 170.765C60.0613 172.151 61.3247 171.683 66.4902 168.344L72.8385 164.165L71.2724 148.986L69.6027 133.868L90.4678 121.092L111.394 108.419L124.362 117.546L137.33 126.673L144.381 122.497L151.432 118.322L138.587 109.402C131.65 104.547 107.791 88.1439 85.6821 72.8053L45.6224 45.1283L52.562 106.985ZM81.0127 86.915C90.5832 93.8524 98.6296 99.8716 98.998 100.494C99.6121 101.531 70.5554 119.158 68.9044 118.735C68.4091 118.609 66.9295 109.961 65.6885 99.3514C64.4475 88.7418 63.1411 78.7312 62.8612 77.0762C62.5814 75.4211 62.6509 74.1195 62.9811 74.2041C63.3113 74.2886 71.3385 80.0391 81.0127 86.915Z" fill="#F4F7FB"/>
<path fill-rule="evenodd" clip-rule="evenodd" d="M143.793 88.3921L131.385 68.1492L118.977 47.9063L128.931 42.0113L138.885 36.1163L150.99 55.1381L163.053 74.325L165.756 89.5312C167.216 97.91 168.228 105.294 168.224 105.997C168.055 106.657 162.496 102.946 155.912 97.7416L143.793 88.3921ZM152.086 89.2231L163.023 97.4517L161.066 83.9052L152.086 89.2231Z" fill="#F4F7FB"/>
<path d="M77.672 187.348L72.2717 190.546L72.8686 191.554L75.0337 190.272L79.6686 198.099L80.7387 197.465L76.1038 189.638L78.2688 188.356L77.672 187.348ZM108.46 176.141L105.38 170.94L104.31 171.574L107.39 176.775C108.569 178.766 108.073 180.085 106.654 180.925C105.236 181.765 103.84 181.566 102.661 179.575L99.5814 174.374L98.5237 175L101.604 180.201C103.137 182.789 105.173 183.163 107.251 181.933C109.341 180.695 109.993 178.729 108.46 176.141ZM131.74 155.329L126.34 158.527L126.937 159.535L129.102 158.253L133.737 166.08L134.807 165.446L130.172 157.619L132.337 156.337L131.74 155.329ZM161.651 149.717C164.177 148.221 164.91 145.031 163.428 142.53C161.947 140.029 158.798 139.138 156.272 140.633C153.758 142.122 153.026 145.312 154.507 147.813C155.988 150.314 159.138 151.205 161.651 149.717ZM161.054 148.709C159.138 149.844 156.719 149.108 155.577 147.179C154.435 145.251 154.953 142.776 156.869 141.641C158.797 140.499 161.216 141.235 162.358 143.164C163.501 145.092 162.983 147.567 161.054 148.709ZM192.05 131.547L193.269 130.824L189.436 128.893C190.298 127.878 190.562 126.394 189.714 124.963C188.631 123.134 186.594 122.845 185.089 123.736L181.94 125.601L187.172 134.435L188.23 133.809L186.476 130.847L188.417 129.698L192.05 131.547ZM183.595 125.982L185.685 124.744C186.656 124.169 187.942 124.383 188.657 125.59C189.371 126.797 188.94 128.027 187.97 128.602L185.879 129.839L183.595 125.982Z" fill="#F4F7FB"/>
</g>
</svg>
