<svg width="16" height="16" viewBox="0 0 16 16" fill="none" xmlns="http://www.w3.org/2000/svg">
<path d="M7.95468 1.32574C11.6083 1.32574 14.5836 4.29964 14.5836 7.95848C14.5836 11.6097 11.6083 14.5835 7.95468 14.5835C4.30111 14.5835 1.32578 11.6097 1.32578 7.95848C1.32578 4.29964 4.30111 1.32574 7.95468 1.32574ZM7.19965 5.32291C7.05888 5.32291 6.92451 5.35489 6.79654 5.41884C6.63658 5.50838 6.50861 5.64908 6.43822 5.81536C6.39343 5.93048 6.32305 6.27584 6.32305 6.28223C6.25266 6.65956 6.21427 7.27353 6.21427 7.95145C6.21427 8.59803 6.25266 9.18577 6.31025 9.5695C6.31665 9.5759 6.38703 10.0044 6.46382 10.1515C6.60459 10.4201 6.87972 10.5864 7.17406 10.5864H7.19965C7.39161 10.58 7.79472 10.4137 7.79472 10.4073C8.47296 10.1259 9.81026 9.24973 10.3477 8.66774L10.3861 8.62937C10.4565 8.55902 10.5461 8.45029 10.5653 8.42471C10.6677 8.29041 10.7189 8.12413 10.7189 7.95848C10.7189 7.77237 10.6613 7.5997 10.5525 7.459C10.5269 7.43341 10.4309 7.32469 10.3413 7.23516C9.81666 6.67235 8.44737 5.75141 7.73073 5.47001C7.62195 5.42588 7.34682 5.32931 7.19965 5.32291Z" fill="url(#paint0_linear)"/>
<defs>
<linearGradient id="paint0_linear" x1="1.32578" y1="1.32574" x2="14.5836" y2="14.5835" gradientUnits="userSpaceOnUse">
<stop offset="0.229167" stop-color="#5AC8FA"/>
<stop offset="1" stop-color="#4081BF"/>
</linearGradient>
</defs>
</svg>
