<svg width="12" height="12" viewBox="0 0 12 12" fill="none" xmlns="http://www.w3.org/2000/svg">
<g clip-path="url(#clip0)">
<path class="svg-c" d="M8.27197 10.2183V9.24512C8.27197 8.72893 8.06692 8.23388 7.70192 7.86888C7.33692 7.50388 6.84187 7.29883 6.32568 7.29883H2.43311C1.91692 7.29883 1.42187 7.50388 1.05687 7.86888C0.691871 8.23388 0.486816 8.72893 0.486816 9.24512V10.2183" stroke="#AFB3B6" stroke-width="0.973145" stroke-linecap="round" stroke-linejoin="round"/>
<path class="svg-c" d="M4.37891 5.35254C5.45381 5.35254 6.3252 4.48116 6.3252 3.40625C6.3252 2.33134 5.45381 1.45996 4.37891 1.45996C3.304 1.45996 2.43262 2.33134 2.43262 3.40625C2.43262 4.48116 3.304 5.35254 4.37891 5.35254Z" stroke="#AFB3B6" stroke-width="0.973145" stroke-linecap="round" stroke-linejoin="round"/>
<path class="svg-c" d="M11.1912 10.2175V9.24436C11.1908 8.81313 11.0473 8.39421 10.7831 8.05339C10.5189 7.71256 10.149 7.46914 9.73145 7.36133" stroke="#AFB3B6" stroke-width="0.973145" stroke-linecap="round" stroke-linejoin="round"/>
<path class="svg-c" d="M7.78516 1.52246C8.20381 1.62965 8.57488 1.87313 8.83987 2.21452C9.10486 2.5559 9.24869 2.97577 9.24869 3.40793C9.24869 3.84009 9.10486 4.25996 8.83987 4.60134C8.57488 4.94272 8.20381 5.1862 7.78516 5.2934" stroke="#AFB3B6" stroke-width="0.973145" stroke-linecap="round" stroke-linejoin="round"/>
</g>
<defs>
<clipPath id="clip0">
<rect width="11.6777" height="11.6777" fill="white"/>
</clipPath>
</defs>
</svg>
