<svg width="20" height="21" viewBox="0 0 20 21" fill="none" xmlns="http://www.w3.org/2000/svg">
<g clip-path="url(#clip0_3138:2333)">
<path d="M20 18.7109C20 18.8672 19.9121 19.0104 19.7363 19.1406C19.5605 19.2708 19.2904 19.3783 18.9258 19.4629C18.5612 19.5475 18.1868 19.6257 17.8027 19.6973C17.4186 19.7689 16.9271 19.8242 16.3281 19.8633C15.7292 19.9023 15.2083 19.9316 14.7656 19.9512C14.3229 19.9707 13.7533 19.987 13.0566 20C12.36 20.013 11.8327 20.0195 11.4746 20.0195H8.52539L6.94336 20L5.23438 19.9512L3.67188 19.8633L2.19727 19.6973L1.07422 19.4629L0.263672 19.1406L0 18.7109C0.0260417 17.5651 0.742188 16.5527 2.14844 15.6738C3.55469 14.7949 5.33854 14.2122 7.5 13.9258V13.2812C6.82292 12.9818 6.23698 12.5586 5.74219 12.0117C5.2474 11.4648 4.85677 10.8236 4.57031 10.0879C4.28385 9.35221 4.07552 8.56445 3.94531 7.72461C3.8151 6.88477 3.75 5.97656 3.75 5C3.75 4.16667 3.91276 3.42448 4.23828 2.77344C4.5638 2.1224 5.01302 1.59831 5.58594 1.20117C6.15885 0.804036 6.81641 0.504557 7.55859 0.302734C8.30078 0.100911 9.11458 0 10 0C10.8854 0 11.6992 0.100911 12.4414 0.302734C13.1836 0.504557 13.8411 0.804036 14.4141 1.20117C14.987 1.59831 15.4362 2.1224 15.7617 2.77344C16.0872 3.42448 16.25 4.16667 16.25 5C16.25 9.55729 15 12.3307 12.5 13.3203V13.9258C14.6615 14.2122 16.4453 14.7949 17.8516 15.6738C19.2578 16.5527 19.974 17.5651 20 18.7109Z" fill="#808891" class="pro-svg"/>
</g>
<defs>
<clipPath id="clip0_3138:2333">
<rect width="20" height="20.0195" fill="white"/>
</clipPath>
</defs>
</svg>
