<svg width="22" height="23" viewBox="0 0 22 23" fill="none" xmlns="http://www.w3.org/2000/svg">
<g clip-path="url(#clip0_436_654)">
<path d="M14.179 19.463V17.6988C14.179 16.763 13.8073 15.8656 13.1456 15.2039C12.4839 14.5422 11.5864 14.1704 10.6506 14.1704H4.47591C3.54012 14.1704 2.64266 14.5422 1.98096 15.2039C1.31925 15.8656 0.94751 16.763 0.94751 17.6988V19.463" stroke="white" stroke-width="1.32315" stroke-linecap="round" stroke-linejoin="round"/>
<path d="M7.56332 10.642C9.512 10.642 11.0917 9.06231 11.0917 7.11363C11.0917 5.16494 9.512 3.58522 7.56332 3.58522C5.61463 3.58522 4.03491 5.16494 4.03491 7.11363C4.03491 9.06231 5.61463 10.642 7.56332 10.642Z" stroke="white" stroke-width="1.32315" stroke-linecap="round" stroke-linejoin="round"/>
<path d="M17.7073 7.99571V13.2883" stroke="white" stroke-width="2.6463" stroke-linecap="round" stroke-linejoin="round"/>
<path d="M20.3536 10.642H15.061" stroke="white" stroke-width="2.6463" stroke-linecap="round" stroke-linejoin="round"/>
</g>
<defs>
<clipPath id="clip0_436_654">
<rect width="21.1704" height="21.1704" fill="white" transform="translate(0.0654297 0.938904)"/>
</clipPath>
</defs>
</svg>
