<svg width="64" height="64" viewBox="0 0 64 64" fill="none" xmlns="http://www.w3.org/2000/svg">
<path fill-rule="evenodd" clip-rule="evenodd" d="M19.7452 46.2853C28.8718 44.952 35.1558 45.0667 44.2945 46.332C44.9563 46.4279 45.5611 46.7601 45.9971 47.2672C46.4331 47.7743 46.6708 48.422 46.6665 49.0907C46.6665 49.7307 46.4465 50.352 46.0492 50.8373C45.3566 51.6835 44.6472 52.5157 43.9212 53.3333H47.4425C47.6638 53.0693 47.8865 52.8 48.1118 52.5267C48.9027 51.5568 49.3342 50.3435 49.3332 49.092C49.3332 46.392 47.3625 44.0653 44.6598 43.692C35.3052 42.3973 28.7665 42.2733 19.3598 43.648C16.6292 44.0467 14.6665 46.4093 14.6665 49.128C14.6665 50.3347 15.0598 51.528 15.8052 52.4947C16.0252 52.78 16.2425 53.06 16.4585 53.3347H19.8945C19.2191 52.526 18.5603 51.7036 17.9185 50.868C17.5371 50.3678 17.3314 49.7557 17.3332 49.1267C17.3332 47.6907 18.3652 46.4867 19.7452 46.2853ZM31.9998 33.3333C33.0504 33.3333 34.0907 33.1264 35.0613 32.7244C36.0319 32.3223 36.9138 31.7331 37.6567 30.9902C38.3996 30.2473 38.9888 29.3654 39.3909 28.3948C39.7929 27.4242 39.9998 26.3839 39.9998 25.3333C39.9998 24.2828 39.7929 23.2425 39.3909 22.2719C38.9888 21.3013 38.3996 20.4194 37.6567 19.6765C36.9138 18.9336 36.0319 18.3443 35.0613 17.9423C34.0907 17.5403 33.0504 17.3333 31.9998 17.3333C29.8781 17.3333 27.8433 18.1762 26.343 19.6765C24.8427 21.1768 23.9998 23.2116 23.9998 25.3333C23.9998 27.4551 24.8427 29.4899 26.343 30.9902C27.8433 32.4905 29.8781 33.3333 31.9998 33.3333ZM31.9998 36C34.8288 36 37.5419 34.8762 39.5423 32.8758C41.5427 30.8754 42.6665 28.1623 42.6665 25.3333C42.6665 22.5044 41.5427 19.7913 39.5423 17.7909C37.5419 15.7905 34.8288 14.6667 31.9998 14.6667C29.1709 14.6667 26.4578 15.7905 24.4574 17.7909C22.457 19.7913 21.3332 22.5044 21.3332 25.3333C21.3332 28.1623 22.457 30.8754 24.4574 32.8758C26.4578 34.8762 29.1709 36 31.9998 36Z" fill="#9747FF"/>
<path fill-rule="evenodd" clip-rule="evenodd" d="M31.9999 56C45.2546 56 55.9999 45.2547 55.9999 32C55.9999 18.7453 45.2546 8 31.9999 8C18.7453 8 7.99992 18.7453 7.99992 32C7.99992 45.2547 18.7453 56 31.9999 56ZM31.9999 58.6667C46.7279 58.6667 58.6666 46.728 58.6666 32C58.6666 17.272 46.7279 5.33334 31.9999 5.33334C17.2719 5.33334 5.33325 17.272 5.33325 32C5.33325 46.728 17.2719 58.6667 31.9999 58.6667Z" fill="#9747FF"/>
</svg>
