<svg width="28" height="26" viewBox="0 0 28 26" fill="none" xmlns="http://www.w3.org/2000/svg">
<path d="M8.57342 0V25.6012H13.2173V0H8.57342ZM0 2.85781V14.17H2.73873V2.85781H0ZM9.40694 4.22717H10.4786V23.2792H9.40694V4.22717ZM17.0709 4.68501L14.3753 5.1687L18.0562 25.6792L20.7518 25.1955L17.0709 4.68501ZM3.81041 5.71561V21.7908H7.50174V5.71561H3.81041ZM20.5704 7.42315L18.9275 8.12409L19.2546 8.89075L20.8975 8.18982L20.5704 7.42315ZM21.3182 9.17552L19.6751 9.8764L20.0022 10.6431L21.645 9.94219L21.318 9.17552H21.3182ZM22.0657 10.9279L20.4228 11.6287L26.3571 25.5384L28 24.8374L22.0657 10.9279H22.0657ZM0 15.2416V17.0278H2.73873V15.2416H0ZM11.3121 15.6584H12.3838V23.2792H11.3121V15.6584ZM0 18.0994V25.6012H2.73873V18.0994H0ZM3.81041 22.8624V25.6012H7.50174V22.8624H3.81041Z" fill="#1338BE"/>
</svg>
