<svg width="28" height="32" viewBox="0 0 28 32" fill="none" xmlns="http://www.w3.org/2000/svg">
<path d="M14 18.86C13.5593 18.86 13.1896 18.7107 12.8909 18.412C12.5922 18.1134 12.4434 17.7442 12.4444 17.3045C12.4444 16.8637 12.5938 16.494 12.8924 16.1954C13.1911 15.8967 13.5603 15.7479 14 15.7489C14.4407 15.7489 14.8104 15.8983 15.1091 16.1969C15.4078 16.4956 15.5566 16.8648 15.5556 17.3045C15.5556 17.7452 15.4062 18.1149 15.1076 18.4136C14.8089 18.7123 14.4397 18.8611 14 18.86ZM7.77778 18.86C7.33704 18.86 6.96734 18.7107 6.66867 18.412C6.37 18.1134 6.22119 17.7442 6.22222 17.3045C6.22222 16.8637 6.37156 16.494 6.67022 16.1954C6.96889 15.8967 7.33808 15.7479 7.77778 15.7489C8.21852 15.7489 8.58822 15.8983 8.88689 16.1969C9.18556 16.4956 9.33437 16.8648 9.33333 17.3045C9.33333 17.7452 9.184 18.1149 8.88533 18.4136C8.58667 18.7123 8.21748 18.8611 7.77778 18.86ZM20.2222 18.86C19.7815 18.86 19.4118 18.7107 19.1131 18.412C18.8144 18.1134 18.6656 17.7442 18.6667 17.3045C18.6667 16.8637 18.816 16.494 19.1147 16.1954C19.4133 15.8967 19.7825 15.7479 20.2222 15.7489C20.663 15.7489 21.0327 15.8983 21.3313 16.1969C21.63 16.4956 21.7788 16.8648 21.7778 17.3045C21.7778 17.7452 21.6284 18.1149 21.3298 18.4136C21.0311 18.7123 20.6619 18.8611 20.2222 18.86ZM14 25.0822C13.5593 25.0822 13.1896 24.9329 12.8909 24.6342C12.5922 24.3356 12.4434 23.9664 12.4444 23.5267C12.4444 23.086 12.5938 22.7163 12.8924 22.4176C13.1911 22.1189 13.5603 21.9701 14 21.9711C14.4407 21.9711 14.8104 22.1205 15.1091 22.4191C15.4078 22.7178 15.5566 23.087 15.5556 23.5267C15.5556 23.9674 15.4062 24.3371 15.1076 24.6358C14.8089 24.9345 14.4397 25.0833 14 25.0822ZM7.77778 25.0822C7.33704 25.0822 6.96734 24.9329 6.66867 24.6342C6.37 24.3356 6.22119 23.9664 6.22222 23.5267C6.22222 23.086 6.37156 22.7163 6.67022 22.4176C6.96889 22.1189 7.33808 21.9701 7.77778 21.9711C8.21852 21.9711 8.58822 22.1205 8.88689 22.4191C9.18556 22.7178 9.33437 23.087 9.33333 23.5267C9.33333 23.9674 9.184 24.3371 8.88533 24.6358C8.58667 24.9345 8.21748 25.0833 7.77778 25.0822ZM20.2222 25.0822C19.7815 25.0822 19.4118 24.9329 19.1131 24.6342C18.8144 24.3356 18.6656 23.9664 18.6667 23.5267C18.6667 23.086 18.816 22.7163 19.1147 22.4176C19.4133 22.1189 19.7825 21.9701 20.2222 21.9711C20.663 21.9711 21.0327 22.1205 21.3313 22.4191C21.63 22.7178 21.7788 23.087 21.7778 23.5267C21.7778 23.9674 21.6284 24.3371 21.3298 24.6358C21.0311 24.9345 20.6619 25.0833 20.2222 25.0822ZM3.11111 31.3045C2.25556 31.3045 1.52289 30.9996 0.913113 30.3898C0.303336 29.78 -0.0010344 29.0479 2.64101e-06 28.1934V6.41559C2.64101e-06 5.56003 0.304892 4.82736 0.914669 4.21759C1.52445 3.60781 2.25659 3.30344 3.11111 3.30448H4.66667V1.74892C4.66667 1.30818 4.816 0.938476 5.11467 0.639809C5.41333 0.341142 5.78252 0.192328 6.22222 0.193365C6.66296 0.193365 7.03267 0.342698 7.33133 0.641365C7.63 0.940031 7.77882 1.30922 7.77778 1.74892V3.30448H20.2222V1.74892C20.2222 1.30818 20.3716 0.938476 20.6702 0.639809C20.9689 0.341142 21.3381 0.192328 21.7778 0.193365C22.2185 0.193365 22.5882 0.342698 22.8869 0.641365C23.1856 0.940031 23.3344 1.30922 23.3333 1.74892V3.30448H24.8889C25.7444 3.30448 26.4771 3.60936 27.0869 4.21914C27.6967 4.82892 28.001 5.56107 28 6.41559V28.1934C28 29.0489 27.6951 29.7816 27.0853 30.3914C26.4756 31.0011 25.7434 31.3055 24.8889 31.3045H3.11111ZM3.11111 28.1934H24.8889V12.6378H3.11111V28.1934Z" fill="#1338BE"/>
</svg>
