<svg width="20" height="18" viewBox="0 0 20 18" fill="none" xmlns="http://www.w3.org/2000/svg">
<g opacity="0.3">
<path d="M15.7113 11.3368C15.0921 11.2107 14.6023 11.4829 14.1685 11.7206C13.7243 11.9656 12.8797 12.6144 12.3955 12.4483C9.91678 11.482 7.58546 9.42763 6.57626 7.07112C6.39839 6.60291 7.08038 5.79805 7.3372 5.37248C7.58641 4.96052 7.86795 4.49231 7.73954 3.90159C7.6235 3.37077 6.12255 1.56233 5.5918 1.0678C5.24177 0.741141 4.88317 0.561477 4.51507 0.53244C3.13112 0.476182 1.58546 2.22473 1.31438 2.64304C0.635239 3.53501 0.639044 4.72188 1.32579 6.16101C2.98083 10.0265 9.2405 15.8601 13.3381 17.4862C14.0943 17.821 14.7858 17.9889 15.4069 17.9889C16.0147 17.9889 16.556 17.8283 17.0211 17.5098C17.3721 17.3183 19.2944 15.7821 19.244 14.4364C19.2135 14.0934 19.0243 13.7505 18.6837 13.4183C18.1653 12.9111 16.2678 11.4475 15.7113 11.3368Z" fill="#1338BE"/>
</g>
</svg>
