<svg width="28" height="28" viewBox="0 0 28 28" fill="none" xmlns="http://www.w3.org/2000/svg">
<path d="M1.55556 15.5556H10.8889C11.7444 15.5556 12.4444 14.8556 12.4444 14V1.55556C12.4444 0.7 11.7444 0 10.8889 0H1.55556C0.7 0 0 0.7 0 1.55556V14C0 14.8556 0.7 15.5556 1.55556 15.5556ZM1.55556 28H10.8889C11.7444 28 12.4444 27.3 12.4444 26.4444V20.2222C12.4444 19.3667 11.7444 18.6667 10.8889 18.6667H1.55556C0.7 18.6667 0 19.3667 0 20.2222V26.4444C0 27.3 0.7 28 1.55556 28ZM17.1111 28H26.4444C27.3 28 28 27.3 28 26.4444V14C28 13.1444 27.3 12.4444 26.4444 12.4444H17.1111C16.2556 12.4444 15.5556 13.1444 15.5556 14V26.4444C15.5556 27.3 16.2556 28 17.1111 28ZM15.5556 1.55556V7.77778C15.5556 8.63333 16.2556 9.33333 17.1111 9.33333H26.4444C27.3 9.33333 28 8.63333 28 7.77778V1.55556C28 0.7 27.3 0 26.4444 0H17.1111C16.2556 0 15.5556 0.7 15.5556 1.55556Z" fill="#1338BE"/>
</svg>
