<svg width="17" height="20" viewBox="0 0 17 20" fill="none" xmlns="http://www.w3.org/2000/svg">
<g opacity="0.3">
<path fill-rule="evenodd" clip-rule="evenodd" d="M0.807861 8.4387C0.807861 4.17258 4.45558 0.724442 8.86787 0.724442C13.2926 0.724442 16.9403 4.17258 16.9403 8.4387C16.9403 10.5885 16.1403 12.5843 14.8236 14.2759C13.3711 16.1418 11.5807 17.7676 9.56545 19.0437C9.10422 19.3386 8.68797 19.3609 8.18177 19.0437C6.15504 17.7676 4.36467 16.1418 2.92453 14.2759C1.60688 12.5843 0.807861 10.5885 0.807861 8.4387ZM6.21162 8.67886C6.21162 10.108 7.40488 11.232 8.86799 11.232C10.3321 11.232 11.5368 10.108 11.5368 8.67886C11.5368 7.26084 10.3321 6.08209 8.86799 6.08209C7.40488 6.08209 6.21162 7.26084 6.21162 8.67886Z" fill="#1338BE"/>
</g>
</svg>
