<svg width="28" height="29" viewBox="0 0 28 29" fill="none" xmlns="http://www.w3.org/2000/svg">
<path d="M3.14761 3.31277H12.5904C13.456 3.31277 14.1642 2.60456 14.1642 1.73897C14.1642 0.873374 13.456 0.165161 12.5904 0.165161H3.14761C1.41642 0.165161 0 1.58159 0 3.31277V25.346C0 27.0772 1.41642 28.4937 3.14761 28.4937H12.5904C13.456 28.4937 14.1642 27.7854 14.1642 26.9199C14.1642 26.0543 13.456 25.346 12.5904 25.346H3.14761V3.31277Z" fill="black"/>
<path d="M27.7776 13.7786L23.3867 9.38767C23.2773 9.27522 23.1367 9.198 22.9831 9.16587C22.8295 9.13374 22.6699 9.14818 22.5245 9.20734C22.3792 9.26649 22.2548 9.36767 22.1673 9.49792C22.0797 9.62817 22.0331 9.78158 22.0333 9.9385V12.7556H11.0166C10.151 12.7556 9.44281 13.4638 9.44281 14.3294C9.44281 15.195 10.151 15.9032 11.0166 15.9032H22.0333V18.7203C22.0333 19.4285 22.8831 19.7748 23.371 19.2712L27.7619 14.8803C28.0767 14.5812 28.0767 14.0776 27.7776 13.7786Z" fill="black"/>
</svg>
