<svg width="28" height="27" viewBox="0 0 28 27" fill="none" xmlns="http://www.w3.org/2000/svg">
<path d="M5.1184 25.8498C4.91739 26.0246 4.67068 26.1384 4.40725 26.1779C4.14381 26.2174 3.87458 26.1809 3.63116 26.0727C3.38774 25.9645 3.18024 25.7891 3.03302 25.5671C2.88579 25.3452 2.80496 25.0858 2.8 24.8194V21.6792C2.05739 21.6792 1.3452 21.3842 0.820101 20.8591C0.294999 20.334 0 19.6218 0 18.8792V9.07923C0 8.33662 0.294999 7.62443 0.820101 7.09933C1.3452 6.57423 2.05739 6.27923 2.8 6.27923H18.2C18.9426 6.27923 19.6548 6.57423 20.1799 7.09933C20.705 7.62443 21 8.33662 21 9.07923V18.8792C21 19.6218 20.705 20.334 20.1799 20.8591C19.6548 21.3842 18.9426 21.6792 18.2 21.6792H11.2042L5.1184 25.8498ZM22.4 14.703C22.3955 14.8752 22.3955 15.0475 22.4 15.2196V14.7016C22.407 14.5518 22.4084 12.6758 22.4056 9.07503C22.4045 7.96185 21.9615 6.89464 21.174 6.1079C20.3864 5.32115 19.3188 4.87923 18.2056 4.87923H7V3.47923C7 2.73662 7.295 2.02443 7.8201 1.49933C8.3452 0.974229 9.05739 0.67923 9.8 0.67923L25.2 0.67923C25.9426 0.67923 26.6548 0.974229 27.1799 1.49933C27.705 2.02443 28 2.73662 28 3.47923V13.2792C28 14.0218 27.705 14.734 27.1799 15.2591C26.6548 15.7842 25.9426 16.0792 25.2 16.0792V19.2194C25.195 19.4858 25.1142 19.7452 24.967 19.9671C24.8198 20.1891 24.6123 20.3645 24.3688 20.4727C24.1254 20.5809 23.8562 20.6174 23.5928 20.5779C23.3293 20.5384 23.0826 20.4246 22.8816 20.2498L22.4 19.9194V14.703Z" fill="black"/>
</svg>
