<svg width="20" height="17" viewBox="0 0 20 17" fill="none" xmlns="http://www.w3.org/2000/svg">
<g opacity="0.3">
<path fill-rule="evenodd" clip-rule="evenodd" d="M14.5794 0.337776C15.8157 0.337776 17.0048 0.819684 17.8797 1.68439C18.7554 2.54728 19.245 3.71113 19.245 4.92954V12.1127C19.245 14.6495 17.1523 16.7044 14.5794 16.7044H5.47245C2.89955 16.7044 0.807861 14.6495 0.807861 12.1127V4.92954C0.807861 2.3927 2.89033 0.337776 5.47245 0.337776H14.5794ZM16.0461 6.28392L16.1198 6.21118C16.3402 5.9475 16.3402 5.56561 16.1097 5.30192C15.9816 5.16644 15.8055 5.0837 15.622 5.06552C15.4285 5.05551 15.2441 5.12007 15.1049 5.24737L10.9482 8.5207C10.4136 8.95806 9.6475 8.95806 9.10453 8.5207L4.95619 5.24737C4.66949 5.03824 4.27309 5.06552 4.03433 5.31102C3.78543 5.55652 3.75778 5.9475 3.96888 6.22028L4.08964 6.33848L8.28408 9.56635C8.80032 9.96642 9.42626 10.1846 10.0817 10.1846C10.7353 10.1846 11.3723 9.96642 11.8876 9.56635L16.0461 6.28392Z" fill="#1338BE"/>
</g>
</svg>
