<svg width="28" height="29" viewBox="0 0 28 29" fill="none" xmlns="http://www.w3.org/2000/svg">
<path d="M10.1692 28.1652L9.61194 23.7075C9.31012 23.5914 9.02547 23.4521 8.75801 23.2896C8.49055 23.127 8.22959 22.9529 7.97513 22.7672L3.83085 24.5085L0 17.8915L3.58706 15.1751C3.56385 15.0126 3.55224 14.8557 3.55224 14.7043V13.7654C3.55224 13.614 3.56385 13.457 3.58706 13.2945L0 10.5781L3.83085 3.96119L7.97513 5.70248C8.23052 5.51675 8.49751 5.34262 8.77612 5.1801C9.05473 5.01758 9.33333 4.87827 9.61194 4.76219L10.1692 0.304474H17.8308L18.3881 4.76219C18.6899 4.87827 18.9745 5.01758 19.242 5.1801C19.5095 5.34262 19.7704 5.51675 20.0249 5.70248L24.1692 3.96119L28 10.5781L24.4129 13.2945C24.4362 13.457 24.4478 13.614 24.4478 13.7654V14.7043C24.4478 14.8557 24.4245 15.0126 24.3781 15.1751L27.9652 17.8915L24.1343 24.5085L20.0249 22.7672C19.7695 22.9529 19.5025 23.127 19.2239 23.2896C18.9453 23.4521 18.6667 23.5914 18.3881 23.7075L17.8308 28.1652H10.1692ZM14.0697 19.1104C15.4163 19.1104 16.5655 18.6345 17.5174 17.6826C18.4693 16.7307 18.9453 15.5814 18.9453 14.2348C18.9453 12.8882 18.4693 11.739 17.5174 10.7871C16.5655 9.83515 15.4163 9.3592 14.0697 9.3592C12.6998 9.3592 11.5445 9.83515 10.6038 10.7871C9.66302 11.739 9.1931 12.8882 9.19403 14.2348C9.19403 15.5814 9.66395 16.7307 10.6038 17.6826C11.5436 18.6345 12.6989 19.1104 14.0697 19.1104Z" fill="#1338BE"/>
</svg>
