<svg width="25" height="25" viewBox="0 0 25 25" fill="none" xmlns="http://www.w3.org/2000/svg">
<path fill-rule="evenodd" clip-rule="evenodd" d="M12.75 21.75C11.2873 21.75 9.97906 21.0889 9.10773 20.0492C8.55737 21.0623 7.484 21.75 6.25 21.75C4.45507 21.75 3 20.2949 3 18.5V10.5C3 8.70507 4.45507 7.25 6.25 7.25C7.49232 7.25 8.57184 7.94704 9.11879 8.97137C9.20813 8.82441 9.30441 8.668 9.40814 8.49948L11.6867 4.79688C12.087 4.1463 12.7962 3.75 13.5601 3.75C14.9083 3.75 15.9393 4.95173 15.7343 6.28427L15.4913 7.86404C15.2983 9.11859 16.2689 10.25 17.5382 10.25H18.228C21.3225 10.25 23.3352 13.5066 21.9513 16.2744L20.8028 18.5715C19.8288 20.5195 17.8378 21.75 15.6598 21.75H12.75ZM12.9642 5.58302C13.0915 5.37607 13.3171 5.25 13.5601 5.25C13.989 5.25 14.317 5.63228 14.2518 6.05618L14.0087 7.63596C13.6759 9.79915 15.3496 11.75 17.5382 11.75H18.228C20.2075 11.75 21.4949 13.8331 20.6097 15.6036L19.4611 17.9007C18.7412 19.3405 17.2696 20.25 15.6598 20.25H12.75C10.9551 20.25 9.5 18.7949 9.5 17V13.5661C9.5 12.3905 9.50431 11.9176 9.60647 11.4699C9.63895 11.3275 9.67874 11.1869 9.72568 11.0487C9.87335 10.6138 10.1175 10.2088 10.7336 9.20765L12.9642 5.58302ZM6.25 8.75C7.2165 8.75 8 9.5335 8 10.5V18.5C8 19.4665 7.2165 20.25 6.25 20.25C5.2835 20.25 4.5 19.4665 4.5 18.5V10.5C4.5 9.5335 5.2835 8.75 6.25 8.75Z" fill="#36A825"/>
</svg>
