<svg width="33" height="32" viewBox="0 0 33 32" fill="none" xmlns="http://www.w3.org/2000/svg">
<path d="M17.8332 21.3333C17.8332 22.0697 17.2362 22.6666 16.4998 22.6666C15.7635 22.6666 15.1665 22.0697 15.1665 21.3333C15.1665 20.5969 15.7635 20 16.4998 20C17.2362 20 17.8332 20.5969 17.8332 21.3333Z" fill="#FCA800"/>
<path d="M17.4998 9.33329C17.4998 8.78101 17.0521 8.33329 16.4998 8.33329C15.9476 8.33329 15.4998 8.78101 15.4998 9.33329V17.3333C15.4998 17.8856 15.9476 18.3333 16.4998 18.3333C17.0521 18.3333 17.4998 17.8856 17.4998 17.3333V9.33329Z" fill="#FCA800"/>
<path fill-rule="evenodd" clip-rule="evenodd" d="M16.4998 1.66663C8.58376 1.66663 2.1665 8.08388 2.1665 16C2.1665 23.916 8.58376 30.3333 16.4998 30.3333C24.4159 30.3333 30.8332 23.916 30.8332 16C30.8332 8.08388 24.4159 1.66663 16.4998 1.66663ZM4.1665 16C4.1665 9.18845 9.68833 3.66663 16.4998 3.66663C23.3113 3.66663 28.8332 9.18845 28.8332 16C28.8332 22.8115 23.3113 28.3333 16.4998 28.3333C9.68833 28.3333 4.1665 22.8115 4.1665 16Z" fill="#FCA800"/>
</svg>
