<svg width="16" height="16" viewBox="0 0 16 16" fill="none" xmlns="http://www.w3.org/2000/svg">
<path fill-rule="evenodd" clip-rule="evenodd" d="M8.00033 4.16669C6.61961 4.16669 5.50033 5.28597 5.50033 6.66669C5.50033 8.0474 6.61961 9.16669 8.00033 9.16669C9.38104 9.16669 10.5003 8.0474 10.5003 6.66669C10.5003 5.28597 9.38104 4.16669 8.00033 4.16669ZM6.50033 6.66669C6.50033 5.83826 7.1719 5.16669 8.00033 5.16669C8.82875 5.16669 9.50033 5.83826 9.50033 6.66669C9.50033 7.49511 8.82875 8.16669 8.00033 8.16669C7.1719 8.16669 6.50033 7.49511 6.50033 6.66669Z" fill="#171520"/>
<path fill-rule="evenodd" clip-rule="evenodd" d="M8.00033 0.166687C4.74477 0.166687 2.16699 2.9952 2.16699 6.40582C2.16699 7.49963 2.7104 8.78765 3.39408 9.99637C4.08884 11.2247 4.97558 12.4508 5.75301 13.4422L5.77895 13.4753C6.15842 13.9592 6.48168 14.3715 6.79515 14.6563C7.13715 14.9669 7.51429 15.1703 8.00033 15.1703C8.48636 15.1703 8.8635 14.9669 9.2055 14.6563C9.51897 14.3715 9.84224 13.9592 10.2217 13.4753L10.2476 13.4422C11.0251 12.4508 11.9118 11.2247 12.6066 9.99637C13.2903 8.78765 13.8337 7.49963 13.8337 6.40582C13.8337 2.9952 11.2559 0.166687 8.00033 0.166687ZM3.16699 6.40582C3.16699 3.47716 5.36485 1.16669 8.00033 1.16669C10.6358 1.16669 12.8337 3.47716 12.8337 6.40582C12.8337 7.22348 12.4072 8.3176 11.7362 9.50404C11.0761 10.6709 10.2231 11.8529 9.46074 12.8251C9.0481 13.3513 8.77641 13.6951 8.53311 13.9161C8.31123 14.1176 8.16311 14.1703 8.00033 14.1703C7.83754 14.1703 7.68942 14.1176 7.46754 13.9161C7.22424 13.6951 6.95255 13.3513 6.53991 12.8251C5.77751 11.8529 4.92451 10.6709 4.26449 9.50404C3.59341 8.3176 3.16699 7.22348 3.16699 6.40582Z" fill="#171520"/>
</svg>
