<svg width="25" height="25" viewBox="0 0 25 25" fill="none" xmlns="http://www.w3.org/2000/svg">
<path fill-rule="evenodd" clip-rule="evenodd" d="M9.25 3.75C8.03653 3.75 6.82216 4.13338 5.8 4.9L3.6 6.55C2.90753 7.06935 2.5 7.88442 2.5 8.75V17.379C2.5 19.592 5.02641 20.8552 6.79677 19.5274C7.52372 18.9822 8.38641 18.7097 9.25 18.7097C10.1136 18.7097 10.9763 18.9822 11.7032 19.5274L11.8 19.6C12.8222 20.3666 14.0365 20.75 15.25 20.75C16.4635 20.75 17.6778 20.3666 18.7 19.6L20.9 17.95C21.5925 17.4306 22 16.6156 22 15.75V7.12097C22 4.90801 19.4736 3.6448 17.7032 4.97258C16.9763 5.51779 16.1136 5.79032 15.25 5.79032C14.3864 5.79032 13.5237 5.51779 12.7968 4.97258L12.7 4.9C11.6778 4.13338 10.4635 3.75 9.25 3.75ZM6.7 6.1C7.24425 5.69181 7.86172 5.43066 8.5 5.3165V17.2601C7.57751 17.3848 6.6792 17.7406 5.89677 18.3274C5.11526 18.9136 4 18.3559 4 17.379V8.75C4 8.35655 4.18524 7.98607 4.5 7.75L6.7 6.1ZM12.6032 18.3274C11.8208 17.7406 10.9225 17.3848 10 17.2601V5.3165C10.6383 5.43066 11.2557 5.69181 11.8 6.1L11.8968 6.17258C12.6792 6.7594 13.5775 7.11519 14.5 7.23987V19.1835C13.8617 19.0693 13.2443 18.8082 12.7 18.4L12.6032 18.3274ZM17.8 18.4C17.2557 18.8082 16.6383 19.0693 16 19.1835V7.23987C16.9225 7.11519 17.8208 6.7594 18.6032 6.17258C19.3847 5.58645 20.5 6.14408 20.5 7.12097V15.75C20.5 16.1434 20.3148 16.5139 20 16.75L17.8 18.4Z" fill="#E7E3F3"/>
</svg>
