<svg width="25" height="25" viewBox="0 0 25 25" fill="none" xmlns="http://www.w3.org/2000/svg">
<path fill-rule="evenodd" clip-rule="evenodd" d="M6.25 3.75C4.45507 3.75 3 5.20507 3 7V15C3 16.7949 4.45507 18.25 6.25 18.25C7.49232 18.25 8.57184 17.553 9.11879 16.5286C9.20815 16.6756 9.30444 16.8321 9.40821 17.0006L11.6867 20.7031C12.087 21.3537 12.7962 21.75 13.5601 21.75C14.9083 21.75 15.9393 20.5483 15.7343 19.2157L15.4913 17.636C15.2983 16.3814 16.2689 15.25 17.5382 15.25H18.228C21.3225 15.25 23.3352 11.9934 21.9513 9.22555L20.8028 6.92852C19.8288 4.98052 17.8378 3.75 15.6598 3.75H12.75C11.2873 3.75 9.97906 4.41112 9.10773 5.45083C8.55737 4.43774 7.484 3.75 6.25 3.75ZM8 7C8 6.0335 7.2165 5.25 6.25 5.25C5.2835 5.25 4.5 6.0335 4.5 7V15C4.5 15.9665 5.2835 16.75 6.25 16.75C7.2165 16.75 8 15.9665 8 15V7ZM9.60647 14.0301C9.50431 13.5824 9.5 13.1095 9.5 11.9339V8.5C9.5 6.70507 10.9551 5.25 12.75 5.25H15.6598C17.2696 5.25 18.7412 6.15951 19.4611 7.59935L20.6097 9.89637C21.4949 11.6669 20.2075 13.75 18.228 13.75H17.5382C15.3496 13.75 13.6759 15.7009 14.0087 17.864L14.2518 19.4438C14.317 19.8677 13.989 20.25 13.5601 20.25C13.3171 20.25 13.0915 20.1239 12.9642 19.917L10.7336 16.2924C10.1175 15.2912 9.87335 14.8862 9.72568 14.4513C9.67874 14.3131 9.63895 14.1725 9.60647 14.0301Z" fill="#DB271A"/>
</svg>
